<svg width="636" height="421" viewBox="0 0 636 421" fill="none" xmlns="http://www.w3.org/2000/svg">
<g clip-path="url(#clip0_2563_24562)">
<rect width="636" height="420" fill="#2B704E"/>
<g opacity="0.7">
<path d="M713.562 446.8C713.562 431.587 707.391 417.817 697.436 407.847C687.466 397.876 673.696 391.721 658.483 391.721H617.157C609.558 391.721 603.387 397.893 603.387 405.491V446.8C603.387 462.014 609.558 475.784 619.512 485.754C629.483 495.725 643.253 501.896 658.466 501.896C688.892 501.896 713.545 477.227 713.545 446.8H713.562Z" fill="#08C16A" fill-opacity="0.2"/>
<path d="M490.743 446.8C490.743 431.587 496.914 417.817 506.868 407.847C516.839 397.876 530.609 391.721 545.822 391.721H587.148C594.746 391.721 600.918 397.893 600.918 405.491V446.8C600.918 462.014 594.746 475.784 584.792 485.754C574.822 495.725 561.052 501.896 545.839 501.896C515.412 501.896 490.759 477.227 490.759 446.8H490.743Z" fill="#08C16A" fill-opacity="0.2"/>
<path d="M440.065 305.994C440.065 328.205 449.075 348.309 463.608 362.866C478.165 377.423 498.269 386.409 520.479 386.409H580.814C591.908 386.409 600.918 377.398 600.918 366.305V305.994C600.918 283.783 591.908 263.68 577.375 249.123C562.818 234.566 542.714 225.556 520.504 225.556C476.082 225.556 440.089 261.573 440.089 305.994H440.065Z" fill="#08C16A" fill-opacity="0.2"/>
<path d="M764.24 305.994C764.24 328.205 755.229 348.309 740.697 362.866C726.14 377.423 706.036 386.409 683.825 386.409H623.49C612.397 386.409 603.387 377.398 603.387 366.305V305.994C603.387 283.783 612.397 263.68 626.93 249.123C641.487 234.566 661.59 225.556 683.801 225.556C728.223 225.556 764.215 261.573 764.215 305.994H764.24Z" fill="#08C16A" fill-opacity="0.2"/>
</g>
<path d="M310.129 310.1C316.803 310.1 324.074 309.411 331.704 307.54C371.673 297.865 393.966 263.497 401.189 251.04L310.105 310.1H310.129Z" fill="#00A152"/>
<path d="M225.539 188.434C225.539 188.434 236.805 151.088 274.525 126.642L225.539 188.434Z" fill="#00A152"/>
<path d="M399.466 218.099C399.466 243.505 389.444 266.499 373.298 283.141C357.129 299.783 334.789 310.074 310.104 310.074H243.083C230.764 310.074 220.742 299.759 220.742 287.08V218.099C220.742 192.693 230.764 169.724 246.91 153.081C263.079 136.439 285.419 126.124 310.104 126.124C359.473 126.124 399.466 167.311 399.466 218.124H399.49L399.466 218.099Z" fill="#00A152"/>
<path d="M415.255 201.901C415.255 227.307 405.233 250.301 389.088 266.943C372.919 283.585 350.578 293.876 325.894 293.876H258.848C246.53 293.876 236.508 283.561 236.508 270.882V201.901C236.508 176.495 246.53 153.501 262.675 136.859C278.845 120.217 301.185 109.901 325.87 109.901C375.239 109.901 415.231 151.088 415.231 201.901H415.255Z" fill="#08C06A"/>
<path d="M342.456 220.685C344.131 222.753 344.872 225.634 344.346 228.809C343.82 231.961 342.05 234.866 339.682 236.958C337.314 239.026 334.3 240.331 331.214 240.331H289.978V240.257C289.523 240.306 289.069 240.331 288.614 240.331C282.443 240.331 278.329 235.186 279.405 228.834C279.836 226.249 281.08 223.886 282.802 221.965L315.834 186.49H298.995C292.824 186.49 288.71 181.345 289.786 174.993C290.313 171.817 292.083 168.937 294.451 166.844C296.819 164.776 299.832 163.472 302.918 163.472H344.8C347.886 163.472 350.445 164.752 352.12 166.844C353.794 168.912 354.535 171.793 354.009 174.993C353.579 177.578 352.335 179.941 350.613 181.862L317.58 217.337H335.161C338.246 217.337 340.806 218.617 342.48 220.71L342.456 220.685Z" fill="white"/>
<path d="M359.185 240.306C353.013 240.306 348.899 235.161 349.976 228.809C351.052 222.458 356.936 217.312 363.107 217.312C369.278 217.312 373.393 222.458 372.316 228.809C371.24 235.161 365.356 240.306 359.185 240.306Z" fill="white"/>
</g>
<defs>
<clipPath id="clip0_2563_24562">
<rect width="636" height="420" fill="white"/>
</clipPath>
</defs>
</svg>
