<svg width="389" height="324" viewBox="0 0 389 324" fill="none" xmlns="http://www.w3.org/2000/svg">
<rect y="0.871094" width="389" height="323" rx="32" fill="#08C06A"/>
<path d="M31.2519 60.3711C30.9852 60.3711 30.7585 60.2778 30.5719 60.0911C30.3852 59.9044 30.2919 59.6778 30.2919 59.4111V33.3711C30.2919 33.0778 30.3852 32.8378 30.5719 32.6511C30.7585 32.4644 30.9852 32.3711 31.2519 32.3711H41.6119C44.8385 32.3711 47.3852 33.1178 49.2519 34.6111C51.1185 36.1044 52.0519 38.2778 52.0519 41.1311C52.0519 43.1044 51.5585 44.7444 50.5719 46.0511C49.6119 47.3578 48.3185 48.3044 46.6919 48.8911L52.5319 59.0911C52.6119 59.2511 52.6519 59.3978 52.6519 59.5311C52.6519 59.7711 52.5585 59.9711 52.3719 60.1311C52.2119 60.2911 52.0252 60.3711 51.8119 60.3711H48.1719C47.7185 60.3711 47.3719 60.2511 47.1319 60.0111C46.8919 59.7711 46.7052 59.5311 46.5719 59.2911L41.4119 49.8111H35.8519V59.4111C35.8519 59.6778 35.7585 59.9044 35.5719 60.0911C35.4119 60.2778 35.1852 60.3711 34.8919 60.3711H31.2519ZM35.8519 45.2911H41.4919C43.1185 45.2911 44.3319 44.9311 45.1319 44.2111C45.9319 43.4644 46.3319 42.4244 46.3319 41.0911C46.3319 39.7578 45.9319 38.7178 45.1319 37.9711C44.3585 37.1978 43.1452 36.8111 41.4919 36.8111H35.8519V45.2911ZM64.4459 60.7711C62.8193 60.7711 61.4059 60.4111 60.2059 59.6911C59.0326 58.9444 58.1259 57.9044 57.4859 56.5711C56.8459 55.2111 56.5259 53.6111 56.5259 51.7711V40.5311C56.5259 40.2644 56.6193 40.0378 56.8059 39.8511C56.9926 39.6644 57.2193 39.5711 57.4859 39.5711H61.0059C61.2993 39.5711 61.5259 39.6644 61.6859 39.8511C61.8726 40.0378 61.9659 40.2644 61.9659 40.5311V51.5311C61.9659 54.8378 63.4193 56.4911 66.3259 56.4911C67.7126 56.4911 68.8059 56.0511 69.6059 55.1711C70.4326 54.2911 70.8459 53.0778 70.8459 51.5311V40.5311C70.8459 40.2644 70.9393 40.0378 71.1259 39.8511C71.3126 39.6644 71.5393 39.5711 71.8059 39.5711H75.3259C75.5926 39.5711 75.8193 39.6644 76.0059 39.8511C76.1926 40.0378 76.2859 40.2644 76.2859 40.5311V59.4111C76.2859 59.6778 76.1926 59.9044 76.0059 60.0911C75.8193 60.2778 75.5926 60.3711 75.3259 60.3711H72.0859C71.7926 60.3711 71.5526 60.2778 71.3659 60.0911C71.2059 59.9044 71.1259 59.6778 71.1259 59.4111V57.7711C70.4059 58.7044 69.5126 59.4378 68.4459 59.9711C67.3793 60.5044 66.0459 60.7711 64.4459 60.7711ZM93.0897 60.7711C91.543 60.7711 90.2497 60.5044 89.2097 59.9711C88.1964 59.4378 87.3564 58.7578 86.6897 57.9311V59.4111C86.6897 59.6778 86.5964 59.9044 86.4097 60.0911C86.2497 60.2778 86.023 60.3711 85.7297 60.3711H82.5697C82.303 60.3711 82.0764 60.2778 81.8897 60.0911C81.703 59.9044 81.6097 59.6778 81.6097 59.4111V32.9311C81.6097 32.6644 81.703 32.4378 81.8897 32.2511C82.0764 32.0644 82.303 31.9711 82.5697 31.9711H85.9697C86.263 31.9711 86.4897 32.0644 86.6497 32.2511C86.8364 32.4378 86.9297 32.6644 86.9297 32.9311V41.8111C87.5964 41.0378 88.423 40.4111 89.4097 39.9311C90.423 39.4244 91.6497 39.1711 93.0897 39.1711C94.503 39.1711 95.7297 39.4111 96.7697 39.8911C97.8097 40.3711 98.6764 41.0511 99.3697 41.9311C100.09 42.7844 100.636 43.7844 101.01 44.9311C101.383 46.0778 101.583 47.3178 101.61 48.6511C101.636 49.1311 101.65 49.5711 101.65 49.9711C101.65 50.3444 101.636 50.7711 101.61 51.2511C101.556 52.6378 101.343 53.9178 100.97 55.0911C100.596 56.2378 100.063 57.2378 99.3697 58.0911C98.6764 58.9444 97.8097 59.6111 96.7697 60.0911C95.7297 60.5444 94.503 60.7711 93.0897 60.7711ZM91.6097 56.4911C92.7564 56.4911 93.6497 56.2511 94.2897 55.7711C94.9297 55.2644 95.3964 54.6111 95.6897 53.8111C95.983 53.0111 96.1564 52.1311 96.2097 51.1711C96.2364 50.3711 96.2364 49.5711 96.2097 48.7711C96.1564 47.8111 95.983 46.9311 95.6897 46.1311C95.3964 45.3311 94.9297 44.6911 94.2897 44.2111C93.6497 43.7044 92.7564 43.4511 91.6097 43.4511C90.543 43.4511 89.6764 43.6911 89.0097 44.1711C88.343 44.6511 87.8364 45.2644 87.4897 46.0111C87.143 46.7311 86.9564 47.4911 86.9297 48.2911C86.903 48.7711 86.8897 49.2911 86.8897 49.8511C86.8897 50.3844 86.903 50.8911 86.9297 51.3711C86.983 52.1978 87.1564 53.0111 87.4497 53.8111C87.7697 54.5844 88.263 55.2244 88.9297 55.7311C89.623 56.2378 90.5164 56.4911 91.6097 56.4911ZM107.061 60.3711C106.794 60.3711 106.568 60.2778 106.381 60.0911C106.194 59.9044 106.101 59.6778 106.101 59.4111V40.5311C106.101 40.2644 106.194 40.0378 106.381 39.8511C106.568 39.6644 106.794 39.5711 107.061 39.5711H110.381C110.674 39.5711 110.901 39.6644 111.061 39.8511C111.248 40.0378 111.341 40.2644 111.341 40.5311V59.4111C111.341 59.6778 111.248 59.9044 111.061 60.0911C110.901 60.2778 110.674 60.3711 110.381 60.3711H107.061ZM106.901 36.1311C106.634 36.1311 106.408 36.0378 106.221 35.8511C106.034 35.6644 105.941 35.4378 105.941 35.1711V32.2911C105.941 32.0244 106.034 31.7978 106.221 31.6111C106.408 31.4244 106.634 31.3311 106.901 31.3311H110.541C110.834 31.3311 111.074 31.4244 111.261 31.6111C111.448 31.7978 111.541 32.0244 111.541 32.2911V35.1711C111.541 35.4378 111.448 35.6644 111.261 35.8511C111.074 36.0378 110.834 36.1311 110.541 36.1311H106.901ZM117.648 60.3711C117.381 60.3711 117.154 60.2778 116.968 60.0911C116.781 59.9044 116.688 59.6778 116.688 59.4111V32.9311C116.688 32.6644 116.781 32.4378 116.968 32.2511C117.154 32.0644 117.381 31.9711 117.648 31.9711H120.888C121.181 31.9711 121.408 32.0644 121.568 32.2511C121.754 32.4378 121.848 32.6644 121.848 32.9311V46.6111L128.568 40.2511C128.834 40.0378 129.048 39.8778 129.208 39.7711C129.394 39.6378 129.674 39.5711 130.048 39.5711H133.768C134.034 39.5711 134.248 39.6511 134.408 39.8111C134.568 39.9711 134.648 40.1844 134.648 40.4511C134.648 40.5578 134.621 40.6778 134.568 40.8111C134.514 40.9444 134.408 41.0644 134.248 41.1711L126.008 48.8911L135.248 58.8111C135.514 59.0778 135.648 59.3044 135.648 59.4911C135.648 59.7578 135.554 59.9711 135.368 60.1311C135.208 60.2911 135.008 60.3711 134.768 60.3711H130.968C130.568 60.3711 130.274 60.3178 130.088 60.2111C129.928 60.0778 129.728 59.9044 129.488 59.6911L121.848 51.6511V59.4111C121.848 59.6778 121.754 59.9044 121.568 60.0911C121.408 60.2778 121.181 60.3711 120.888 60.3711H117.648Z" fill="#046A38"/>
<path d="M31.2319 162.371C30.6132 162.371 30.0332 162.139 29.4919 161.675C29.0279 161.211 28.7959 160.631 28.7959 159.935C28.7959 159.626 28.8732 159.278 29.0279 158.891L56.9839 84.0711C57.2159 83.2978 57.6412 82.6404 58.2599 82.0991C58.9559 81.4804 59.8839 81.1711 61.0439 81.1711H73.6879C74.8479 81.1711 75.7372 81.4804 76.3559 82.0991C76.9745 82.6404 77.4385 83.2978 77.7479 84.0711L105.704 158.891C105.781 159.278 105.82 159.626 105.82 159.935C105.82 160.631 105.588 161.211 105.124 161.675C104.66 162.139 104.119 162.371 103.5 162.371H93.4079C92.3252 162.371 91.5132 162.139 90.9719 161.675C90.5079 161.134 90.1985 160.631 90.0439 160.167L84.5919 146.015H50.1399L44.6879 160.167C44.5332 160.631 44.1852 161.134 43.6439 161.675C43.1799 162.139 42.4065 162.371 41.3239 162.371H31.2319ZM54.1999 132.675H80.5319L67.3079 96.8311L54.1999 132.675ZM132.774 163.531C128.752 163.531 125.118 162.758 121.87 161.211C118.622 159.587 116.031 157.46 114.098 154.831C112.242 152.124 111.314 149.108 111.314 145.783C111.314 140.37 113.518 136.078 117.926 132.907C122.334 129.659 128.095 127.494 135.21 126.411L151.102 124.091V121.655C151.102 118.407 150.29 115.894 148.666 114.115C147.042 112.336 144.258 111.447 140.314 111.447C137.53 111.447 135.248 112.027 133.47 113.187C131.768 114.27 130.492 115.739 129.642 117.595C129.023 118.6 128.134 119.103 126.974 119.103H117.81C116.959 119.103 116.302 118.871 115.838 118.407C115.451 117.943 115.258 117.324 115.258 116.551C115.335 115.314 115.838 113.806 116.766 112.027C117.771 110.248 119.24 108.547 121.174 106.923C123.184 105.222 125.775 103.791 128.946 102.631C132.116 101.471 135.944 100.891 140.43 100.891C145.302 100.891 149.4 101.51 152.726 102.747C156.128 103.907 158.835 105.492 160.846 107.503C162.856 109.514 164.326 111.872 165.254 114.579C166.182 117.286 166.646 120.147 166.646 123.163V159.587C166.646 160.36 166.375 161.018 165.834 161.559C165.292 162.1 164.635 162.371 163.862 162.371H154.466C153.615 162.371 152.919 162.1 152.378 161.559C151.914 161.018 151.682 160.36 151.682 159.587V155.063C150.676 156.455 149.323 157.808 147.622 159.123C145.92 160.438 143.832 161.52 141.358 162.371C138.96 163.144 136.099 163.531 132.774 163.531ZM136.718 152.511C139.424 152.511 141.86 151.931 144.026 150.771C146.268 149.611 148.008 147.832 149.246 145.435C150.56 142.96 151.218 139.867 151.218 136.155V133.719L139.618 135.575C135.055 136.271 131.652 137.392 129.41 138.939C127.167 140.486 126.046 142.38 126.046 144.623C126.046 146.324 126.548 147.794 127.554 149.031C128.636 150.191 129.99 151.08 131.614 151.699C133.238 152.24 134.939 152.511 136.718 152.511Z" fill="white"/>
<path d="M27.8719 202.371C27.7652 202.371 27.6652 202.331 27.5719 202.251C27.4919 202.171 27.4519 202.071 27.4519 201.951C27.4519 201.898 27.4652 201.838 27.4919 201.771L32.3119 188.871C32.3519 188.738 32.4252 188.624 32.5319 188.531C32.6519 188.424 32.8119 188.371 33.0119 188.371H35.1919C35.3919 188.371 35.5452 188.424 35.6519 188.531C35.7585 188.624 35.8385 188.738 35.8919 188.871L40.7119 201.771C40.7252 201.838 40.7319 201.898 40.7319 201.951C40.7319 202.071 40.6919 202.171 40.6119 202.251C40.5319 202.331 40.4385 202.371 40.3319 202.371H38.5919C38.4052 202.371 38.2652 202.331 38.1719 202.251C38.0919 202.158 38.0385 202.071 38.0119 201.991L37.0719 199.551H31.1319L30.1919 201.991C30.1652 202.071 30.1052 202.158 30.0119 202.251C29.9319 202.331 29.7985 202.371 29.6119 202.371H27.8719ZM31.8319 197.251H36.3719L34.0919 191.071L31.8319 197.251ZM47.122 202.371C46.9887 202.371 46.8754 202.324 46.782 202.231C46.6887 202.138 46.642 202.024 46.642 201.891V188.871C46.642 188.724 46.6887 188.604 46.782 188.511C46.8754 188.418 46.9887 188.371 47.122 188.371H52.922C54.002 188.371 54.882 188.538 55.562 188.871C56.242 189.191 56.742 189.638 57.062 190.211C57.3954 190.784 57.562 191.451 57.562 192.211C57.562 192.718 57.4687 193.164 57.282 193.551C57.1087 193.924 56.8887 194.231 56.622 194.471C56.3687 194.711 56.1154 194.898 55.862 195.031C56.382 195.271 56.842 195.671 57.242 196.231C57.642 196.791 57.842 197.458 57.842 198.231C57.842 199.031 57.662 199.744 57.302 200.371C56.942 200.998 56.4087 201.491 55.702 201.851C54.9954 202.198 54.122 202.371 53.082 202.371H47.122ZM49.422 200.251H52.762C53.482 200.251 54.0287 200.058 54.402 199.671C54.7754 199.271 54.962 198.791 54.962 198.231C54.962 197.644 54.7687 197.158 54.382 196.771C54.0087 196.384 53.4687 196.191 52.762 196.191H49.422V200.251ZM49.422 194.111H52.562C53.2687 194.111 53.7954 193.944 54.142 193.611C54.502 193.264 54.682 192.818 54.682 192.271C54.682 191.711 54.502 191.271 54.142 190.951C53.7954 190.631 53.2687 190.471 52.562 190.471H49.422V194.111ZM70.3233 202.571C69.0833 202.571 68.0299 202.358 67.1633 201.931C66.3099 201.491 65.6566 200.871 65.2033 200.071C64.7499 199.258 64.4966 198.284 64.4433 197.151C64.4299 196.604 64.4233 196.018 64.4233 195.391C64.4233 194.764 64.4299 194.164 64.4433 193.591C64.4966 192.471 64.7499 191.504 65.2033 190.691C65.6699 189.878 66.3299 189.258 67.1833 188.831C68.0499 188.391 69.0966 188.171 70.3233 188.171C71.2299 188.171 72.0433 188.291 72.7633 188.531C73.4833 188.771 74.0966 189.104 74.6033 189.531C75.1099 189.944 75.5033 190.431 75.7833 190.991C76.0633 191.551 76.2099 192.158 76.2233 192.811C76.2366 192.931 76.1966 193.031 76.1033 193.111C76.0233 193.191 75.9233 193.231 75.8033 193.231H73.9033C73.7566 193.231 73.6366 193.198 73.5433 193.131C73.4499 193.051 73.3833 192.924 73.3433 192.751C73.1299 191.871 72.7633 191.271 72.2433 190.951C71.7233 190.631 71.0766 190.471 70.3033 190.471C69.4099 190.471 68.6966 190.724 68.1633 191.231C67.6299 191.724 67.3433 192.544 67.3033 193.691C67.2633 194.784 67.2633 195.904 67.3033 197.051C67.3433 198.198 67.6299 199.024 68.1633 199.531C68.6966 200.024 69.4099 200.271 70.3033 200.271C71.0766 200.271 71.7233 200.111 72.2433 199.791C72.7766 199.458 73.1433 198.858 73.3433 197.991C73.3833 197.804 73.4499 197.678 73.5433 197.611C73.6366 197.544 73.7566 197.511 73.9033 197.511H75.8033C75.9233 197.511 76.0233 197.551 76.1033 197.631C76.1966 197.711 76.2366 197.811 76.2233 197.931C76.2099 198.584 76.0633 199.191 75.7833 199.751C75.5033 200.311 75.1099 200.804 74.6033 201.231C74.0966 201.644 73.4833 201.971 72.7633 202.211C72.0433 202.451 71.2299 202.571 70.3233 202.571ZM83.6455 202.371C83.5121 202.371 83.3988 202.324 83.3055 202.231C83.2121 202.138 83.1655 202.024 83.1655 201.891V188.871C83.1655 188.724 83.2121 188.604 83.3055 188.511C83.3988 188.418 83.5121 188.371 83.6455 188.371H88.5255C89.8721 188.371 90.9788 188.578 91.8455 188.991C92.7255 189.404 93.3855 190.018 93.8255 190.831C94.2788 191.644 94.5121 192.638 94.5255 193.811C94.5521 194.398 94.5655 194.918 94.5655 195.371C94.5655 195.824 94.5521 196.338 94.5255 196.911C94.4988 198.151 94.2721 199.178 93.8455 199.991C93.4188 200.791 92.7721 201.391 91.9055 201.791C91.0521 202.178 89.9588 202.371 88.6255 202.371H83.6455ZM85.9455 200.071H88.5255C89.2721 200.071 89.8788 199.964 90.3455 199.751C90.8121 199.538 91.1521 199.198 91.3655 198.731C91.5921 198.251 91.7121 197.624 91.7255 196.851C91.7388 196.451 91.7455 196.104 91.7455 195.811C91.7588 195.504 91.7588 195.204 91.7455 194.911C91.7455 194.604 91.7388 194.258 91.7255 193.871C91.6988 192.778 91.4255 191.971 90.9055 191.451C90.3855 190.931 89.5588 190.671 88.4255 190.671H85.9455V200.071ZM102.278 202.371C102.145 202.371 102.032 202.324 101.938 202.231C101.845 202.138 101.798 202.024 101.798 201.891V188.871C101.798 188.724 101.845 188.604 101.938 188.511C102.032 188.418 102.145 188.371 102.278 188.371H111.078C111.225 188.371 111.345 188.418 111.438 188.511C111.532 188.604 111.578 188.724 111.578 188.871V190.191C111.578 190.324 111.532 190.438 111.438 190.531C111.345 190.624 111.225 190.671 111.078 190.671H104.498V194.211H110.638C110.785 194.211 110.905 194.258 110.998 194.351C111.092 194.431 111.138 194.544 111.138 194.691V195.931C111.138 196.078 111.092 196.198 110.998 196.291C110.905 196.371 110.785 196.411 110.638 196.411H104.498V200.071H111.238C111.385 200.071 111.505 200.118 111.598 200.211C111.692 200.304 111.738 200.424 111.738 200.571V201.891C111.738 202.024 111.692 202.138 111.598 202.231C111.505 202.324 111.385 202.371 111.238 202.371H102.278ZM119.29 202.371C119.157 202.371 119.043 202.324 118.95 202.231C118.857 202.138 118.81 202.024 118.81 201.891V188.871C118.81 188.724 118.857 188.604 118.95 188.511C119.043 188.418 119.157 188.371 119.29 188.371H127.97C128.117 188.371 128.237 188.418 128.33 188.511C128.423 188.604 128.47 188.724 128.47 188.871V190.271C128.47 190.418 128.423 190.538 128.33 190.631C128.237 190.711 128.117 190.751 127.97 190.751H121.55V194.551H127.57C127.717 194.551 127.837 194.598 127.93 194.691C128.023 194.784 128.07 194.904 128.07 195.051V196.451C128.07 196.584 128.023 196.698 127.93 196.791C127.837 196.884 127.717 196.931 127.57 196.931H121.55V201.891C121.55 202.024 121.503 202.138 121.41 202.231C121.317 202.324 121.197 202.371 121.05 202.371H119.29ZM140.539 202.571C139.312 202.571 138.266 202.358 137.399 201.931C136.546 201.504 135.879 200.891 135.399 200.091C134.932 199.278 134.679 198.311 134.639 197.191C134.626 196.618 134.619 196.004 134.619 195.351C134.619 194.684 134.626 194.058 134.639 193.471C134.679 192.364 134.932 191.418 135.399 190.631C135.879 189.844 136.552 189.238 137.419 188.811C138.299 188.384 139.339 188.171 140.539 188.171C141.512 188.171 142.366 188.304 143.099 188.571C143.832 188.824 144.439 189.158 144.919 189.571C145.412 189.971 145.779 190.404 146.019 190.871C146.272 191.338 146.406 191.771 146.419 192.171C146.432 192.291 146.399 192.391 146.319 192.471C146.239 192.551 146.132 192.591 145.999 192.591H143.939C143.806 192.591 143.706 192.564 143.639 192.511C143.572 192.458 143.512 192.378 143.459 192.271C143.352 191.991 143.186 191.718 142.959 191.451C142.732 191.171 142.426 190.938 142.039 190.751C141.652 190.564 141.152 190.471 140.539 190.471C139.632 190.471 138.906 190.711 138.359 191.191C137.826 191.671 137.539 192.464 137.499 193.571C137.459 194.731 137.459 195.904 137.499 197.091C137.539 198.224 137.832 199.038 138.379 199.531C138.939 200.024 139.672 200.271 140.579 200.271C141.179 200.271 141.712 200.164 142.179 199.951C142.659 199.738 143.032 199.404 143.299 198.951C143.579 198.498 143.719 197.918 143.719 197.211V196.591H141.279C141.146 196.591 141.032 196.544 140.939 196.451C140.846 196.358 140.799 196.238 140.799 196.091V195.031C140.799 194.884 140.846 194.764 140.939 194.671C141.032 194.578 141.146 194.531 141.279 194.531H146.059C146.206 194.531 146.319 194.578 146.399 194.671C146.492 194.764 146.539 194.884 146.539 195.031V197.131C146.539 198.251 146.292 199.218 145.799 200.031C145.319 200.844 144.626 201.471 143.719 201.911C142.826 202.351 141.766 202.571 140.539 202.571ZM154.153 202.371C154.02 202.371 153.907 202.331 153.813 202.251C153.72 202.158 153.673 202.038 153.673 201.891V188.871C153.673 188.724 153.72 188.604 153.813 188.511C153.907 188.418 154.02 188.371 154.153 188.371H155.973C156.12 188.371 156.233 188.418 156.313 188.511C156.407 188.604 156.453 188.724 156.453 188.871V194.031H162.353V188.871C162.353 188.724 162.4 188.604 162.493 188.511C162.587 188.418 162.7 188.371 162.833 188.371H164.633C164.78 188.371 164.9 188.418 164.993 188.511C165.087 188.604 165.133 188.724 165.133 188.871V201.891C165.133 202.024 165.087 202.138 164.993 202.231C164.9 202.324 164.78 202.371 164.633 202.371H162.833C162.7 202.371 162.587 202.324 162.493 202.231C162.4 202.138 162.353 202.024 162.353 201.891V196.531H156.453V201.891C156.453 202.024 156.407 202.138 156.313 202.231C156.233 202.324 156.12 202.371 155.973 202.371H154.153ZM173.294 202.371C173.161 202.371 173.047 202.324 172.954 202.231C172.861 202.138 172.814 202.024 172.814 201.891V188.851C172.814 188.718 172.861 188.604 172.954 188.511C173.047 188.418 173.161 188.371 173.294 188.371H175.174C175.321 188.371 175.434 188.418 175.514 188.511C175.607 188.604 175.654 188.718 175.654 188.851V201.891C175.654 202.024 175.607 202.138 175.514 202.231C175.434 202.324 175.321 202.371 175.174 202.371H173.294ZM33.2519 228.571C32.5319 228.571 31.8452 228.484 31.1919 228.311C30.5519 228.124 29.9785 227.844 29.4719 227.471C28.9652 227.098 28.5585 226.638 28.2519 226.091C27.9585 225.544 27.8052 224.898 27.7919 224.151C27.7919 224.031 27.8319 223.931 27.9119 223.851C27.9919 223.758 28.0919 223.711 28.2119 223.711H30.1119C30.2852 223.711 30.4119 223.758 30.4919 223.851C30.5852 223.944 30.6585 224.071 30.7119 224.231C30.7785 224.711 30.9319 225.104 31.1719 225.411C31.4119 225.704 31.7119 225.924 32.0719 226.071C32.4452 226.204 32.8585 226.271 33.3119 226.271C34.1519 226.271 34.7919 225.998 35.2319 225.451C35.6852 224.904 35.9119 224.144 35.9119 223.171V216.731H29.1319C28.9852 216.731 28.8652 216.684 28.7719 216.591C28.6919 216.498 28.6519 216.384 28.6519 216.251V214.851C28.6519 214.718 28.6919 214.604 28.7719 214.511C28.8652 214.418 28.9852 214.371 29.1319 214.371H38.2719C38.4185 214.371 38.5385 214.418 38.6319 214.511C38.7252 214.604 38.7719 214.724 38.7719 214.871V223.251C38.7719 224.358 38.5385 225.311 38.0719 226.111C37.6185 226.911 36.9785 227.524 36.1519 227.951C35.3385 228.364 34.3719 228.571 33.2519 228.571ZM46.8291 228.371C46.6957 228.371 46.5824 228.324 46.4891 228.231C46.3957 228.138 46.3491 228.024 46.3491 227.891V214.871C46.3491 214.724 46.3957 214.604 46.4891 214.511C46.5824 214.418 46.6957 214.371 46.8291 214.371H48.5891C48.7357 214.371 48.8557 214.418 48.9491 214.511C49.0424 214.604 49.0891 214.724 49.0891 214.871V219.551L53.6091 214.731C53.6624 214.664 53.7491 214.591 53.8691 214.511C54.0024 214.418 54.1757 214.371 54.3891 214.371H56.3691C56.4757 214.371 56.5691 214.411 56.6491 214.491C56.7424 214.571 56.7891 214.671 56.7891 214.791C56.7891 214.884 56.7624 214.964 56.7091 215.031L51.2091 221.071L57.0891 227.691C57.1557 227.771 57.1891 227.858 57.1891 227.951C57.1891 228.071 57.1424 228.171 57.0491 228.251C56.9691 228.331 56.8757 228.371 56.7691 228.371H54.7091C54.4824 228.371 54.3024 228.324 54.1691 228.231C54.0491 228.124 53.9691 228.051 53.9291 228.011L49.0891 222.711V227.891C49.0891 228.024 49.0424 228.138 48.9491 228.231C48.8557 228.324 48.7357 228.371 48.5891 228.371H46.8291ZM63.8994 228.371C63.766 228.371 63.6527 228.324 63.5594 228.231C63.466 228.138 63.4194 228.024 63.4194 227.891V214.851C63.4194 214.718 63.466 214.604 63.5594 214.511C63.6527 214.418 63.766 214.371 63.8994 214.371H65.7594C65.8927 214.371 66.006 214.418 66.0994 214.511C66.1927 214.604 66.2394 214.718 66.2394 214.851V225.991H72.5794C72.726 225.991 72.846 226.038 72.9394 226.131C73.0327 226.224 73.0794 226.344 73.0794 226.491V227.891C73.0794 228.024 73.0327 228.138 72.9394 228.231C72.846 228.324 72.726 228.371 72.5794 228.371H63.8994ZM79.5834 228.371C79.4368 228.371 79.3168 228.324 79.2234 228.231C79.1301 228.138 79.0834 228.024 79.0834 227.891V214.871C79.0834 214.724 79.1301 214.604 79.2234 214.511C79.3168 214.418 79.4368 214.371 79.5834 214.371H81.1634C81.3501 214.371 81.4901 214.424 81.5834 214.531C81.6768 214.624 81.7368 214.698 81.7634 214.751L85.6234 221.951L89.5234 214.751C89.5501 214.698 89.6101 214.624 89.7034 214.531C89.7968 214.424 89.9368 214.371 90.1234 214.371H91.6834C91.8301 214.371 91.9501 214.418 92.0434 214.511C92.1368 214.604 92.1834 214.724 92.1834 214.871V227.891C92.1834 228.024 92.1368 228.138 92.0434 228.231C91.9501 228.324 91.8301 228.371 91.6834 228.371H90.0034C89.8568 228.371 89.7368 228.324 89.6434 228.231C89.5634 228.138 89.5234 228.024 89.5234 227.891V219.231L86.7234 224.571C86.6568 224.691 86.5701 224.798 86.4634 224.891C86.3568 224.971 86.2168 225.011 86.0434 225.011H85.2234C85.0368 225.011 84.8901 224.971 84.7834 224.891C84.6901 224.798 84.6101 224.691 84.5434 224.571L81.7434 219.231V227.891C81.7434 228.024 81.6968 228.138 81.6034 228.231C81.5101 228.324 81.3968 228.371 81.2634 228.371H79.5834ZM100.345 228.371C100.211 228.371 100.098 228.324 100.005 228.231C99.9114 228.138 99.8647 228.024 99.8647 227.891V214.871C99.8647 214.724 99.9114 214.604 100.005 214.511C100.098 214.418 100.211 214.371 100.345 214.371H101.885C102.071 214.371 102.205 214.418 102.285 214.511C102.378 214.591 102.438 214.651 102.465 214.691L108.225 223.651V214.871C108.225 214.724 108.265 214.604 108.345 214.511C108.438 214.418 108.558 214.371 108.705 214.371H110.385C110.531 214.371 110.651 214.418 110.745 214.511C110.838 214.604 110.885 214.724 110.885 214.871V227.871C110.885 228.018 110.838 228.138 110.745 228.231C110.651 228.324 110.538 228.371 110.405 228.371H108.845C108.658 228.371 108.525 228.324 108.445 228.231C108.365 228.138 108.305 228.078 108.265 228.051L102.525 219.291V227.891C102.525 228.024 102.478 228.138 102.385 228.231C102.291 228.324 102.171 228.371 102.025 228.371H100.345ZM123.956 228.571C122.769 228.571 121.749 228.378 120.896 227.991C120.042 227.591 119.376 226.984 118.896 226.171C118.416 225.344 118.156 224.318 118.116 223.091C118.102 222.518 118.096 221.951 118.096 221.391C118.096 220.831 118.102 220.258 118.116 219.671C118.156 218.458 118.422 217.444 118.916 216.631C119.409 215.818 120.082 215.204 120.936 214.791C121.802 214.378 122.809 214.171 123.956 214.171C125.102 214.171 126.109 214.378 126.976 214.791C127.842 215.204 128.522 215.818 129.016 216.631C129.509 217.444 129.776 218.458 129.816 219.671C129.842 220.258 129.856 220.831 129.856 221.391C129.856 221.951 129.842 222.518 129.816 223.091C129.776 224.318 129.516 225.344 129.036 226.171C128.556 226.984 127.882 227.591 127.016 227.991C126.162 228.378 125.142 228.571 123.956 228.571ZM123.956 226.271C124.822 226.271 125.529 226.018 126.076 225.511C126.622 224.991 126.916 224.151 126.956 222.991C126.982 222.404 126.996 221.864 126.996 221.371C126.996 220.864 126.982 220.324 126.956 219.751C126.929 218.978 126.782 218.351 126.516 217.871C126.262 217.378 125.916 217.024 125.476 216.811C125.036 216.584 124.529 216.471 123.956 216.471C123.396 216.471 122.896 216.584 122.456 216.811C122.016 217.024 121.662 217.378 121.396 217.871C121.142 218.351 121.002 218.978 120.976 219.751C120.962 220.324 120.956 220.864 120.956 221.371C120.956 221.864 120.962 222.404 120.976 222.991C121.016 224.151 121.309 224.991 121.856 225.511C122.402 226.018 123.102 226.271 123.956 226.271ZM137.532 228.371C137.399 228.371 137.286 228.324 137.192 228.231C137.099 228.138 137.052 228.024 137.052 227.891V214.871C137.052 214.724 137.099 214.604 137.192 214.511C137.286 214.418 137.399 214.371 137.532 214.371H142.892C143.932 214.371 144.839 214.538 145.612 214.871C146.386 215.191 146.986 215.684 147.412 216.351C147.839 217.004 148.052 217.824 148.052 218.811C148.052 219.811 147.839 220.638 147.412 221.291C146.986 221.931 146.386 222.411 145.612 222.731C144.839 223.051 143.932 223.211 142.892 223.211H139.912V227.891C139.912 228.024 139.866 228.138 139.772 228.231C139.692 228.324 139.579 228.371 139.432 228.371H137.532ZM139.872 220.991H142.792C143.566 220.991 144.159 220.811 144.572 220.451C144.986 220.078 145.192 219.531 145.192 218.811C145.192 218.144 144.999 217.611 144.612 217.211C144.226 216.798 143.619 216.591 142.792 216.591H139.872V220.991ZM163.337 229.671C163.15 229.671 162.997 229.611 162.877 229.491C162.77 229.384 162.684 229.291 162.617 229.211L161.877 228.211C161.25 228.451 160.537 228.571 159.737 228.571C158.55 228.571 157.524 228.378 156.657 227.991C155.804 227.591 155.137 226.984 154.657 226.171C154.19 225.344 153.93 224.318 153.877 223.091C153.864 222.518 153.857 221.951 153.857 221.391C153.857 220.831 153.864 220.258 153.877 219.671C153.93 218.458 154.197 217.444 154.677 216.631C155.17 215.818 155.85 215.204 156.717 214.791C157.584 214.378 158.59 214.171 159.737 214.171C160.884 214.171 161.89 214.378 162.757 214.791C163.624 215.204 164.304 215.818 164.797 216.631C165.29 217.444 165.55 218.458 165.577 219.671C165.604 220.258 165.617 220.831 165.617 221.391C165.617 221.951 165.604 222.518 165.577 223.091C165.51 224.838 165.03 226.164 164.137 227.071L165.537 229.051C165.55 229.064 165.564 229.084 165.577 229.111C165.59 229.151 165.597 229.198 165.597 229.251C165.61 229.371 165.57 229.471 165.477 229.551C165.397 229.631 165.304 229.671 165.197 229.671H163.337ZM159.737 226.271C160.59 226.271 161.29 226.018 161.837 225.511C162.384 224.991 162.677 224.151 162.717 222.991C162.744 222.404 162.757 221.864 162.757 221.371C162.757 220.864 162.744 220.324 162.717 219.751C162.704 218.978 162.564 218.351 162.297 217.871C162.03 217.378 161.677 217.024 161.237 216.811C160.81 216.584 160.31 216.471 159.737 216.471C159.177 216.471 158.677 216.584 158.237 216.811C157.797 217.024 157.444 217.378 157.177 217.871C156.924 218.351 156.777 218.978 156.737 219.751C156.724 220.324 156.717 220.864 156.717 221.371C156.717 221.864 156.724 222.404 156.737 222.991C156.79 224.151 157.09 224.991 157.637 225.511C158.184 226.018 158.884 226.271 159.737 226.271ZM29.2119 254.371C29.0785 254.371 28.9652 254.324 28.8719 254.231C28.7785 254.138 28.7319 254.024 28.7319 253.891V240.871C28.7319 240.724 28.7785 240.604 28.8719 240.511C28.9652 240.418 29.0785 240.371 29.2119 240.371H34.3919C36.0052 240.371 37.2785 240.744 38.2119 241.491C39.1452 242.238 39.6119 243.324 39.6119 244.751C39.6119 245.738 39.3652 246.558 38.8719 247.211C38.3919 247.864 37.7452 248.338 36.9319 248.631L39.8519 253.731C39.8919 253.811 39.9119 253.884 39.9119 253.951C39.9119 254.071 39.8652 254.171 39.7719 254.251C39.6919 254.331 39.5985 254.371 39.4919 254.371H37.6719C37.4452 254.371 37.2719 254.311 37.1519 254.191C37.0319 254.071 36.9385 253.951 36.8719 253.831L34.2919 249.091H31.5119V253.891C31.5119 254.024 31.4652 254.138 31.3719 254.231C31.2919 254.324 31.1785 254.371 31.0319 254.371H29.2119ZM31.5119 246.831H34.3319C35.1452 246.831 35.7519 246.651 36.1519 246.291C36.5519 245.918 36.7519 245.398 36.7519 244.731C36.7519 244.064 36.5519 243.544 36.1519 243.171C35.7652 242.784 35.1585 242.591 34.3319 242.591H31.5119V246.831ZM51.6192 254.571C50.3792 254.571 49.3392 254.391 48.4992 254.031C47.6726 253.658 47.0392 253.178 46.5992 252.591C46.1726 251.991 45.9459 251.364 45.9192 250.711C45.9192 250.591 45.9592 250.491 46.0392 250.411C46.1192 250.331 46.2192 250.291 46.3392 250.291H48.1192C48.2926 250.291 48.4192 250.331 48.4992 250.411C48.5926 250.478 48.6726 250.564 48.7392 250.671C48.8192 250.924 48.9726 251.178 49.1992 251.431C49.4259 251.671 49.7326 251.871 50.1192 252.031C50.5192 252.191 51.0192 252.271 51.6192 252.271C52.5792 252.271 53.2926 252.111 53.7592 251.791C54.2392 251.471 54.4792 251.038 54.4792 250.491C54.4792 250.104 54.3526 249.798 54.0992 249.571C53.8459 249.331 53.4526 249.118 52.9192 248.931C52.3992 248.731 51.7059 248.524 50.8392 248.311C49.8392 248.071 48.9992 247.784 48.3192 247.451C47.6526 247.104 47.1459 246.671 46.7992 246.151C46.4659 245.631 46.2992 244.971 46.2992 244.171C46.2992 243.398 46.5059 242.711 46.9192 242.111C47.3459 241.511 47.9459 241.038 48.7192 240.691C49.5059 240.344 50.4392 240.171 51.5192 240.171C52.3859 240.171 53.1526 240.291 53.8192 240.531C54.4859 240.758 55.0392 241.064 55.4792 241.451C55.9192 241.824 56.2526 242.231 56.4792 242.671C56.7192 243.098 56.8459 243.518 56.8592 243.931C56.8592 244.038 56.8192 244.138 56.7392 244.231C56.6726 244.311 56.5726 244.351 56.4392 244.351H54.5792C54.4726 244.351 54.3659 244.324 54.2592 244.271C54.1526 244.218 54.0659 244.118 53.9992 243.971C53.9192 243.558 53.6592 243.204 53.2192 242.911C52.7792 242.618 52.2126 242.471 51.5192 242.471C50.7992 242.471 50.2192 242.604 49.7792 242.871C49.3392 243.138 49.1192 243.551 49.1192 244.111C49.1192 244.484 49.2259 244.798 49.4392 245.051C49.6659 245.291 50.0192 245.504 50.4992 245.691C50.9926 245.878 51.6392 246.078 52.4392 246.291C53.5726 246.544 54.4992 246.838 55.2192 247.171C55.9392 247.504 56.4659 247.931 56.7992 248.451C57.1326 248.958 57.2992 249.604 57.2992 250.391C57.2992 251.271 57.0592 252.024 56.5792 252.651C56.1126 253.264 55.4526 253.738 54.5992 254.071C53.7459 254.404 52.7526 254.571 51.6192 254.571ZM67.2333 254.371C67.0999 254.371 66.9866 254.324 66.8933 254.231C66.7999 254.138 66.7533 254.024 66.7533 253.891V242.831H63.0533C62.9199 242.831 62.8066 242.784 62.7133 242.691C62.6199 242.598 62.5733 242.484 62.5733 242.351V240.871C62.5733 240.724 62.6199 240.604 62.7133 240.511C62.8066 240.418 62.9199 240.371 63.0533 240.371H73.2533C73.3999 240.371 73.5199 240.418 73.6133 240.511C73.7066 240.604 73.7533 240.724 73.7533 240.871V242.351C73.7533 242.484 73.7066 242.598 73.6133 242.691C73.5199 242.784 73.3999 242.831 73.2533 242.831H69.5733V253.891C69.5733 254.024 69.5266 254.138 69.4333 254.231C69.3399 254.324 69.2199 254.371 69.0733 254.371H67.2333ZM85.4447 254.571C84.2847 254.571 83.278 254.378 82.4247 253.991C81.5714 253.591 80.9114 252.984 80.4447 252.171C79.978 251.344 79.7447 250.291 79.7447 249.011V240.871C79.7447 240.724 79.7914 240.604 79.8847 240.511C79.978 240.418 80.0914 240.371 80.2247 240.371H82.0447C82.1914 240.371 82.3047 240.418 82.3847 240.511C82.478 240.604 82.5247 240.724 82.5247 240.871V249.011C82.5247 250.104 82.7847 250.918 83.3047 251.451C83.8247 251.971 84.538 252.231 85.4447 252.231C86.3514 252.231 87.058 251.971 87.5647 251.451C88.0847 250.918 88.3447 250.104 88.3447 249.011V240.871C88.3447 240.724 88.3914 240.604 88.4847 240.511C88.578 240.418 88.698 240.371 88.8447 240.371H90.6447C90.7914 240.371 90.9047 240.418 90.9847 240.511C91.078 240.604 91.1247 240.724 91.1247 240.871V249.011C91.1247 250.291 90.8914 251.344 90.4247 252.171C89.9714 252.984 89.318 253.591 88.4647 253.991C87.6247 254.378 86.618 254.571 85.4447 254.571ZM102.245 254.371C102.032 254.371 101.865 254.318 101.745 254.211C101.625 254.104 101.539 253.971 101.485 253.811L97.2055 240.971C97.1788 240.904 97.1655 240.844 97.1655 240.791C97.1655 240.671 97.2055 240.571 97.2855 240.491C97.3655 240.411 97.4655 240.371 97.5855 240.371H99.3455C99.5321 240.371 99.6721 240.424 99.7655 240.531C99.8721 240.624 99.9388 240.718 99.9655 240.811L103.345 251.111L106.725 240.811C106.752 240.718 106.812 240.624 106.905 240.531C107.012 240.424 107.159 240.371 107.345 240.371H109.105C109.212 240.371 109.305 240.411 109.385 240.491C109.479 240.571 109.525 240.671 109.525 240.791C109.525 240.844 109.512 240.904 109.485 240.971L105.205 253.811C105.152 253.971 105.065 254.104 104.945 254.211C104.825 254.318 104.659 254.371 104.445 254.371H102.245ZM117.751 254.371C117.551 254.371 117.391 254.318 117.271 254.211C117.164 254.091 117.091 253.944 117.051 253.771L114.671 240.951C114.671 240.911 114.664 240.878 114.651 240.851C114.651 240.824 114.651 240.804 114.651 240.791C114.651 240.671 114.691 240.571 114.771 240.491C114.864 240.411 114.964 240.371 115.071 240.371H116.831C117.164 240.371 117.351 240.504 117.391 240.771L119.051 249.831L120.851 243.971C120.891 243.864 120.957 243.758 121.051 243.651C121.157 243.531 121.311 243.471 121.511 243.471H122.591C122.804 243.471 122.957 243.531 123.051 243.651C123.144 243.758 123.204 243.864 123.231 243.971L125.051 249.811L126.711 240.771C126.751 240.504 126.937 240.371 127.271 240.371H129.031C129.137 240.371 129.231 240.411 129.311 240.491C129.391 240.571 129.431 240.671 129.431 240.791C129.431 240.804 129.431 240.824 129.431 240.851C129.431 240.878 129.424 240.911 129.411 240.951L127.031 253.771C127.004 253.944 126.931 254.091 126.811 254.211C126.691 254.318 126.531 254.371 126.331 254.371H124.991C124.791 254.371 124.631 254.318 124.511 254.211C124.404 254.104 124.331 253.991 124.291 253.871L122.051 247.191L119.811 253.871C119.757 253.991 119.677 254.104 119.571 254.211C119.464 254.318 119.304 254.371 119.091 254.371H117.751ZM135.335 254.371C135.215 254.371 135.115 254.331 135.035 254.251C134.955 254.171 134.915 254.071 134.915 253.951C134.915 253.911 134.921 253.871 134.935 253.831C134.948 253.791 134.961 253.751 134.975 253.711L139.455 247.231L135.255 241.031C135.215 240.951 135.195 240.871 135.195 240.791C135.195 240.671 135.235 240.571 135.315 240.491C135.395 240.411 135.495 240.371 135.615 240.371H137.655C137.815 240.371 137.941 240.411 138.035 240.491C138.128 240.571 138.208 240.658 138.275 240.751L141.215 245.071L144.175 240.751C144.228 240.658 144.301 240.571 144.395 240.491C144.501 240.411 144.635 240.371 144.795 240.371H146.735C146.855 240.371 146.955 240.411 147.035 240.491C147.115 240.571 147.155 240.671 147.155 240.791C147.155 240.871 147.128 240.951 147.075 241.031L142.895 247.231L147.375 253.711C147.401 253.751 147.421 253.791 147.435 253.831C147.448 253.871 147.455 253.911 147.455 253.951C147.455 254.071 147.408 254.171 147.315 254.251C147.235 254.331 147.141 254.371 147.035 254.371H144.915C144.755 254.371 144.628 254.331 144.535 254.251C144.441 254.171 144.368 254.091 144.315 254.011L141.115 249.491L137.975 254.011C137.921 254.091 137.848 254.171 137.755 254.251C137.661 254.331 137.528 254.371 137.355 254.371H135.335ZM157.501 254.371C157.368 254.371 157.255 254.324 157.161 254.231C157.068 254.138 157.021 254.024 157.021 253.891V249.371L152.301 241.011C152.288 240.984 152.275 240.951 152.261 240.911C152.248 240.871 152.241 240.831 152.241 240.791C152.241 240.671 152.281 240.571 152.361 240.491C152.441 240.411 152.535 240.371 152.641 240.371H154.421C154.581 240.371 154.708 240.411 154.801 240.491C154.908 240.571 154.981 240.658 155.021 240.751L158.421 246.571L161.801 240.751C161.855 240.658 161.928 240.571 162.021 240.491C162.128 240.411 162.261 240.371 162.421 240.371H164.181C164.301 240.371 164.401 240.411 164.481 240.491C164.561 240.571 164.601 240.671 164.601 240.791C164.601 240.831 164.595 240.871 164.581 240.911C164.581 240.951 164.568 240.984 164.541 241.011L159.821 249.371V253.891C159.821 254.024 159.775 254.138 159.681 254.231C159.588 254.324 159.468 254.371 159.321 254.371H157.501ZM170.307 254.371C170.174 254.371 170.06 254.324 169.967 254.231C169.874 254.138 169.827 254.018 169.827 253.871V252.471C169.827 252.271 169.867 252.111 169.947 251.991C170.027 251.871 170.087 251.784 170.127 251.731L177.087 242.731H170.507C170.36 242.731 170.24 242.684 170.147 242.591C170.067 242.498 170.027 242.384 170.027 242.251V240.871C170.027 240.724 170.067 240.604 170.147 240.511C170.24 240.418 170.36 240.371 170.507 240.371H180.067C180.214 240.371 180.334 240.418 180.427 240.511C180.52 240.604 180.567 240.724 180.567 240.871V242.251C180.567 242.411 180.54 242.544 180.487 242.651C180.434 242.758 180.374 242.858 180.307 242.951L173.487 251.991H180.287C180.434 251.991 180.554 252.038 180.647 252.131C180.74 252.224 180.787 252.344 180.787 252.491V253.891C180.787 254.024 180.74 254.138 180.647 254.231C180.554 254.324 180.434 254.371 180.287 254.371H170.307Z" fill="white"/>
<path d="M225.149 202.571C224.455 202.571 223.829 202.438 223.269 202.171C222.709 201.891 222.262 201.524 221.929 201.071C221.609 200.604 221.449 200.084 221.449 199.511C221.449 198.578 221.829 197.838 222.589 197.291C223.349 196.731 224.342 196.358 225.569 196.171L228.309 195.771V195.351C228.309 194.791 228.169 194.358 227.889 194.051C227.609 193.744 227.129 193.591 226.449 193.591C225.969 193.591 225.575 193.691 225.269 193.891C224.975 194.078 224.755 194.331 224.609 194.651C224.502 194.824 224.349 194.911 224.149 194.911H222.569C222.422 194.911 222.309 194.871 222.229 194.791C222.162 194.711 222.129 194.604 222.129 194.471C222.142 194.258 222.229 193.998 222.389 193.691C222.562 193.384 222.815 193.091 223.149 192.811C223.495 192.518 223.942 192.271 224.489 192.071C225.035 191.871 225.695 191.771 226.469 191.771C227.309 191.771 228.015 191.878 228.589 192.091C229.175 192.291 229.642 192.564 229.989 192.911C230.335 193.258 230.589 193.664 230.749 194.131C230.909 194.598 230.989 195.091 230.989 195.611V201.891C230.989 202.024 230.942 202.138 230.849 202.231C230.755 202.324 230.642 202.371 230.509 202.371H228.889C228.742 202.371 228.622 202.324 228.529 202.231C228.449 202.138 228.409 202.024 228.409 201.891V201.111C228.235 201.351 228.002 201.584 227.709 201.811C227.415 202.038 227.055 202.224 226.629 202.371C226.215 202.504 225.722 202.571 225.149 202.571ZM225.829 200.671C226.295 200.671 226.715 200.571 227.089 200.371C227.475 200.171 227.775 199.864 227.989 199.451C228.215 199.024 228.329 198.491 228.329 197.851V197.431L226.329 197.751C225.542 197.871 224.955 198.064 224.569 198.331C224.182 198.598 223.989 198.924 223.989 199.311C223.989 199.604 224.075 199.858 224.249 200.071C224.435 200.271 224.669 200.424 224.949 200.531C225.229 200.624 225.522 200.671 225.829 200.671ZM243.885 202.571C243.111 202.571 242.465 202.438 241.945 202.171C241.438 201.904 241.018 201.564 240.685 201.151V201.891C240.685 202.024 240.638 202.138 240.545 202.231C240.465 202.324 240.351 202.371 240.205 202.371H238.625C238.491 202.371 238.378 202.324 238.285 202.231C238.191 202.138 238.145 202.024 238.145 201.891V188.651C238.145 188.518 238.191 188.404 238.285 188.311C238.378 188.218 238.491 188.171 238.625 188.171H240.325C240.471 188.171 240.585 188.218 240.665 188.311C240.758 188.404 240.805 188.518 240.805 188.651V193.091C241.138 192.704 241.551 192.391 242.045 192.151C242.551 191.898 243.165 191.771 243.885 191.771C244.591 191.771 245.205 191.891 245.725 192.131C246.245 192.371 246.678 192.711 247.025 193.151C247.385 193.578 247.658 194.078 247.845 194.651C248.031 195.224 248.131 195.844 248.145 196.511C248.158 196.751 248.165 196.971 248.165 197.171C248.165 197.358 248.158 197.571 248.145 197.811C248.118 198.504 248.011 199.144 247.825 199.731C247.638 200.304 247.371 200.804 247.025 201.231C246.678 201.658 246.245 201.991 245.725 202.231C245.205 202.458 244.591 202.571 243.885 202.571ZM243.145 200.431C243.718 200.431 244.165 200.311 244.485 200.071C244.805 199.818 245.038 199.491 245.185 199.091C245.331 198.691 245.418 198.251 245.445 197.771C245.458 197.371 245.458 196.971 245.445 196.571C245.418 196.091 245.331 195.651 245.185 195.251C245.038 194.851 244.805 194.531 244.485 194.291C244.165 194.038 243.718 193.911 243.145 193.911C242.611 193.911 242.178 194.031 241.845 194.271C241.511 194.511 241.258 194.818 241.085 195.191C240.911 195.551 240.818 195.931 240.805 196.331C240.791 196.571 240.785 196.831 240.785 197.111C240.785 197.378 240.791 197.631 240.805 197.871C240.831 198.284 240.918 198.691 241.065 199.091C241.225 199.478 241.471 199.798 241.805 200.051C242.151 200.304 242.598 200.431 243.145 200.431ZM259.461 202.571C258.501 202.571 257.654 202.391 256.921 202.031C256.201 201.671 255.634 201.151 255.221 200.471C254.821 199.778 254.601 198.944 254.561 197.971C254.547 197.771 254.541 197.511 254.541 197.191C254.541 196.858 254.547 196.584 254.561 196.371C254.601 195.398 254.821 194.571 255.221 193.891C255.634 193.198 256.201 192.671 256.921 192.311C257.654 191.951 258.501 191.771 259.461 191.771C260.314 191.771 261.041 191.891 261.641 192.131C262.241 192.358 262.734 192.658 263.121 193.031C263.507 193.391 263.794 193.771 263.981 194.171C264.181 194.558 264.287 194.911 264.301 195.231C264.314 195.378 264.267 195.498 264.161 195.591C264.067 195.671 263.954 195.711 263.821 195.711H262.061C261.927 195.711 261.821 195.678 261.741 195.611C261.674 195.544 261.607 195.444 261.541 195.311C261.341 194.778 261.074 194.404 260.741 194.191C260.421 193.964 260.007 193.851 259.501 193.851C258.834 193.851 258.301 194.064 257.901 194.491C257.514 194.904 257.307 195.564 257.281 196.471C257.254 196.978 257.254 197.444 257.281 197.871C257.307 198.791 257.514 199.458 257.901 199.871C258.301 200.284 258.834 200.491 259.501 200.491C260.021 200.491 260.441 200.384 260.761 200.171C261.081 199.944 261.341 199.564 261.541 199.031C261.607 198.898 261.674 198.798 261.741 198.731C261.821 198.664 261.927 198.631 262.061 198.631H263.821C263.954 198.631 264.067 198.678 264.161 198.771C264.267 198.851 264.314 198.964 264.301 199.111C264.287 199.351 264.221 199.624 264.101 199.931C263.994 200.224 263.814 200.531 263.561 200.851C263.321 201.158 263.014 201.444 262.641 201.711C262.267 201.964 261.814 202.171 261.281 202.331C260.761 202.491 260.154 202.571 259.461 202.571ZM274.817 202.571C274.123 202.571 273.51 202.458 272.977 202.231C272.457 201.991 272.023 201.658 271.677 201.231C271.33 200.804 271.063 200.304 270.877 199.731C270.69 199.144 270.583 198.504 270.557 197.811C270.543 197.571 270.537 197.358 270.537 197.171C270.537 196.971 270.543 196.751 270.557 196.511C270.583 195.844 270.683 195.224 270.857 194.651C271.043 194.078 271.31 193.578 271.657 193.151C272.017 192.711 272.457 192.371 272.977 192.131C273.51 191.891 274.123 191.771 274.817 191.771C275.537 191.771 276.143 191.898 276.637 192.151C277.143 192.391 277.563 192.704 277.897 193.091V188.651C277.897 188.518 277.937 188.404 278.017 188.311C278.11 188.218 278.23 188.171 278.377 188.171H280.077C280.21 188.171 280.323 188.218 280.417 188.311C280.51 188.404 280.557 188.518 280.557 188.651V201.891C280.557 202.024 280.51 202.138 280.417 202.231C280.323 202.324 280.21 202.371 280.077 202.371H278.497C278.35 202.371 278.23 202.324 278.137 202.231C278.057 202.138 278.017 202.024 278.017 201.891V201.151C277.683 201.564 277.257 201.904 276.737 202.171C276.23 202.438 275.59 202.571 274.817 202.571ZM275.557 200.431C276.117 200.431 276.563 200.304 276.897 200.051C277.23 199.798 277.477 199.478 277.637 199.091C277.797 198.691 277.883 198.284 277.897 197.871C277.91 197.631 277.917 197.378 277.917 197.111C277.917 196.831 277.91 196.571 277.897 196.331C277.883 195.931 277.79 195.551 277.617 195.191C277.443 194.818 277.19 194.511 276.857 194.271C276.523 194.031 276.09 193.911 275.557 193.911C274.997 193.911 274.55 194.038 274.217 194.291C273.897 194.531 273.663 194.851 273.517 195.251C273.37 195.651 273.283 196.091 273.257 196.571C273.243 196.971 273.243 197.371 273.257 197.771C273.283 198.251 273.37 198.691 273.517 199.091C273.663 199.491 273.897 199.818 274.217 200.071C274.55 200.311 274.997 200.431 275.557 200.431ZM292.273 202.571C290.793 202.571 289.619 202.144 288.753 201.291C287.886 200.438 287.419 199.224 287.353 197.651C287.339 197.518 287.333 197.351 287.333 197.151C287.333 196.938 287.339 196.771 287.353 196.651C287.406 195.638 287.633 194.771 288.033 194.051C288.446 193.318 289.013 192.758 289.733 192.371C290.453 191.971 291.299 191.771 292.273 191.771C293.353 191.771 294.259 191.998 294.993 192.451C295.726 192.891 296.279 193.511 296.653 194.311C297.026 195.098 297.213 196.011 297.213 197.051V197.471C297.213 197.604 297.166 197.718 297.073 197.811C296.979 197.904 296.859 197.951 296.713 197.951H290.073C290.073 197.951 290.073 197.971 290.073 198.011C290.073 198.051 290.073 198.084 290.073 198.111C290.086 198.578 290.173 199.011 290.333 199.411C290.506 199.798 290.753 200.111 291.073 200.351C291.406 200.591 291.799 200.711 292.253 200.711C292.626 200.711 292.939 200.658 293.193 200.551C293.446 200.431 293.653 200.298 293.813 200.151C293.973 200.004 294.086 199.884 294.153 199.791C294.273 199.631 294.366 199.538 294.433 199.511C294.513 199.471 294.626 199.451 294.773 199.451H296.493C296.626 199.451 296.733 199.491 296.813 199.571C296.906 199.651 296.946 199.751 296.933 199.871C296.919 200.084 296.806 200.344 296.593 200.651C296.393 200.958 296.099 201.258 295.713 201.551C295.326 201.844 294.839 202.091 294.253 202.291C293.679 202.478 293.019 202.571 292.273 202.571ZM290.073 196.271H294.493V196.211C294.493 195.691 294.406 195.238 294.233 194.851C294.059 194.451 293.806 194.144 293.473 193.931C293.139 193.704 292.739 193.591 292.273 193.591C291.806 193.591 291.406 193.704 291.073 193.931C290.739 194.144 290.486 194.451 290.313 194.851C290.153 195.238 290.073 195.691 290.073 196.211V196.271ZM305.154 202.371C305.021 202.371 304.908 202.324 304.814 202.231C304.721 202.138 304.674 202.024 304.674 201.891V194.091H303.054C302.921 194.091 302.808 194.044 302.714 193.951C302.621 193.858 302.574 193.738 302.574 193.591V192.451C302.574 192.318 302.621 192.204 302.714 192.111C302.808 192.018 302.921 191.971 303.054 191.971H304.674V191.151C304.674 190.351 304.821 189.691 305.114 189.171C305.408 188.638 305.841 188.238 306.414 187.971C306.988 187.704 307.714 187.571 308.594 187.571H309.954C310.101 187.571 310.214 187.618 310.294 187.711C310.388 187.804 310.434 187.918 310.434 188.051V189.191C310.434 189.338 310.388 189.458 310.294 189.551C310.214 189.644 310.101 189.691 309.954 189.691H308.674C308.141 189.691 307.774 189.824 307.574 190.091C307.374 190.358 307.274 190.744 307.274 191.251V191.971H309.754C309.901 191.971 310.014 192.018 310.094 192.111C310.188 192.204 310.234 192.318 310.234 192.451V193.591C310.234 193.738 310.188 193.858 310.094 193.951C310.014 194.044 309.901 194.091 309.754 194.091H307.274V201.891C307.274 202.024 307.228 202.138 307.134 202.231C307.041 202.324 306.928 202.371 306.794 202.371H305.154ZM320.676 206.771C319.703 206.771 318.903 206.644 318.276 206.391C317.65 206.138 317.156 205.831 316.796 205.471C316.436 205.111 316.176 204.751 316.016 204.391C315.87 204.044 315.79 203.771 315.776 203.571C315.763 203.438 315.803 203.318 315.896 203.211C316.003 203.118 316.123 203.071 316.256 203.071H317.996C318.13 203.071 318.236 203.098 318.316 203.151C318.396 203.218 318.463 203.331 318.516 203.491C318.596 203.664 318.703 203.851 318.836 204.051C318.97 204.251 319.17 204.418 319.436 204.551C319.716 204.698 320.096 204.771 320.576 204.771C321.083 204.771 321.51 204.698 321.856 204.551C322.203 204.404 322.463 204.158 322.636 203.811C322.823 203.464 322.916 202.984 322.916 202.371V201.011C322.596 201.398 322.183 201.711 321.676 201.951C321.183 202.191 320.57 202.311 319.836 202.311C319.13 202.311 318.51 202.198 317.976 201.971C317.456 201.731 317.023 201.404 316.676 200.991C316.33 200.564 316.063 200.064 315.876 199.491C315.703 198.918 315.603 198.284 315.576 197.591C315.563 197.231 315.563 196.871 315.576 196.511C315.603 195.844 315.703 195.224 315.876 194.651C316.063 194.078 316.33 193.578 316.676 193.151C317.023 192.711 317.456 192.371 317.976 192.131C318.51 191.891 319.13 191.771 319.836 191.771C320.596 191.771 321.236 191.918 321.756 192.211C322.276 192.491 322.703 192.844 323.036 193.271V192.471C323.036 192.324 323.083 192.204 323.176 192.111C323.27 192.018 323.383 191.971 323.516 191.971H325.136C325.27 191.971 325.383 192.018 325.476 192.111C325.57 192.204 325.616 192.324 325.616 192.471L325.636 202.111C325.636 203.071 325.456 203.898 325.096 204.591C324.736 205.284 324.19 205.818 323.456 206.191C322.736 206.578 321.81 206.771 320.676 206.771ZM320.576 200.191C321.123 200.191 321.563 200.071 321.896 199.831C322.23 199.591 322.476 199.278 322.636 198.891C322.796 198.504 322.89 198.111 322.916 197.711C322.93 197.538 322.936 197.318 322.936 197.051C322.936 196.784 322.93 196.571 322.916 196.411C322.89 195.998 322.796 195.604 322.636 195.231C322.476 194.844 322.23 194.531 321.896 194.291C321.563 194.038 321.123 193.911 320.576 193.911C320.03 193.911 319.59 194.038 319.256 194.291C318.923 194.531 318.683 194.851 318.536 195.251C318.403 195.651 318.323 196.091 318.296 196.571C318.27 196.891 318.27 197.218 318.296 197.551C318.323 198.018 318.403 198.458 318.536 198.871C318.683 199.271 318.923 199.591 319.256 199.831C319.59 200.071 320.03 200.191 320.576 200.191ZM333.371 202.371C333.237 202.371 333.124 202.324 333.031 202.231C332.937 202.138 332.891 202.024 332.891 201.891V188.651C332.891 188.518 332.937 188.404 333.031 188.311C333.124 188.218 333.237 188.171 333.371 188.171H335.151C335.297 188.171 335.411 188.218 335.491 188.311C335.584 188.404 335.631 188.518 335.631 188.651V193.211C335.991 192.784 336.431 192.438 336.951 192.171C337.471 191.904 338.111 191.771 338.871 191.771C339.684 191.771 340.391 191.958 340.991 192.331C341.604 192.691 342.077 193.204 342.411 193.871C342.744 194.538 342.911 195.338 342.911 196.271V201.891C342.911 202.024 342.864 202.138 342.771 202.231C342.677 202.324 342.564 202.371 342.431 202.371H340.631C340.497 202.371 340.384 202.324 340.291 202.231C340.197 202.138 340.151 202.024 340.151 201.891V196.391C340.151 195.618 339.957 195.011 339.571 194.571C339.197 194.131 338.651 193.911 337.931 193.911C337.237 193.911 336.677 194.131 336.251 194.571C335.837 195.011 335.631 195.618 335.631 196.391V201.891C335.631 202.024 335.584 202.138 335.491 202.231C335.411 202.324 335.297 202.371 335.151 202.371H333.371ZM350.499 202.371C350.366 202.371 350.253 202.324 350.159 202.231C350.066 202.138 350.019 202.024 350.019 201.891V192.451C350.019 192.318 350.066 192.204 350.159 192.111C350.253 192.018 350.366 191.971 350.499 191.971H352.159C352.306 191.971 352.419 192.018 352.499 192.111C352.593 192.204 352.639 192.318 352.639 192.451V201.891C352.639 202.024 352.593 202.138 352.499 202.231C352.419 202.324 352.306 202.371 352.159 202.371H350.499ZM350.419 190.251C350.286 190.251 350.173 190.204 350.079 190.111C349.986 190.018 349.939 189.904 349.939 189.771V188.331C349.939 188.198 349.986 188.084 350.079 187.991C350.173 187.898 350.286 187.851 350.419 187.851H352.239C352.386 187.851 352.506 187.898 352.599 187.991C352.693 188.084 352.739 188.198 352.739 188.331V189.771C352.739 189.904 352.693 190.018 352.599 190.111C352.506 190.204 352.386 190.251 352.239 190.251H350.419ZM220.409 232.171C220.275 232.171 220.162 232.124 220.069 232.031C219.975 231.938 219.929 231.824 219.929 231.691V230.531C219.929 230.398 219.975 230.284 220.069 230.191C220.162 230.098 220.275 230.051 220.409 230.051H220.929C221.342 230.051 221.649 229.978 221.849 229.831C222.049 229.684 222.182 229.478 222.249 229.211C222.315 228.958 222.349 228.671 222.349 228.351V218.451C222.349 218.318 222.395 218.204 222.489 218.111C222.582 218.018 222.695 217.971 222.829 217.971H224.569C224.702 217.971 224.815 218.018 224.909 218.111C225.002 218.204 225.049 218.318 225.049 218.451V228.391C225.049 229.178 224.902 229.851 224.609 230.411C224.329 230.971 223.902 231.404 223.329 231.711C222.769 232.018 222.049 232.171 221.169 232.171H220.409ZM222.749 216.251C222.602 216.251 222.482 216.204 222.389 216.111C222.309 216.018 222.269 215.904 222.269 215.771V214.331C222.269 214.198 222.309 214.084 222.389 213.991C222.482 213.898 222.602 213.851 222.749 213.851H224.629C224.775 213.851 224.895 213.898 224.989 213.991C225.082 214.084 225.129 214.198 225.129 214.331V215.771C225.129 215.904 225.082 216.018 224.989 216.111C224.895 216.204 224.775 216.251 224.629 216.251H222.749ZM232.785 228.371C232.652 228.371 232.538 228.324 232.445 228.231C232.352 228.138 232.305 228.024 232.305 227.891V214.651C232.305 214.518 232.352 214.404 232.445 214.311C232.538 214.218 232.652 214.171 232.785 214.171H234.405C234.552 214.171 234.665 214.218 234.745 214.311C234.838 214.404 234.885 214.518 234.885 214.651V221.491L238.245 218.311C238.378 218.204 238.485 218.124 238.565 218.071C238.658 218.004 238.798 217.971 238.985 217.971H240.845C240.978 217.971 241.085 218.011 241.165 218.091C241.245 218.171 241.285 218.278 241.285 218.411C241.285 218.464 241.272 218.524 241.245 218.591C241.218 218.658 241.165 218.718 241.085 218.771L236.965 222.631L241.585 227.591C241.718 227.724 241.785 227.838 241.785 227.931C241.785 228.064 241.738 228.171 241.645 228.251C241.565 228.331 241.465 228.371 241.345 228.371H239.445C239.245 228.371 239.098 228.344 239.005 228.291C238.925 228.224 238.825 228.138 238.705 228.031L234.885 224.011V227.891C234.885 228.024 234.838 228.138 234.745 228.231C234.665 228.324 234.552 228.371 234.405 228.371H232.785ZM248.215 228.371C248.081 228.371 247.968 228.324 247.875 228.231C247.781 228.138 247.735 228.024 247.735 227.891V214.651C247.735 214.518 247.781 214.404 247.875 214.311C247.968 214.218 248.081 214.171 248.215 214.171H249.875C250.008 214.171 250.121 214.218 250.215 214.311C250.308 214.404 250.355 214.518 250.355 214.651V227.891C250.355 228.024 250.308 228.138 250.215 228.231C250.121 228.324 250.008 228.371 249.875 228.371H248.215ZM258.058 228.371C257.924 228.371 257.811 228.324 257.718 228.231C257.624 228.138 257.578 228.024 257.578 227.891V218.451C257.578 218.318 257.624 218.204 257.718 218.111C257.811 218.018 257.924 217.971 258.058 217.971H259.618C259.751 217.971 259.864 218.018 259.958 218.111C260.051 218.204 260.098 218.318 260.098 218.451V219.131C260.378 218.758 260.751 218.444 261.218 218.191C261.698 217.924 262.264 217.784 262.918 217.771C264.438 217.744 265.498 218.338 266.098 219.551C266.404 219.018 266.844 218.591 267.418 218.271C268.004 217.938 268.651 217.771 269.358 217.771C270.051 217.771 270.678 217.931 271.238 218.251C271.811 218.571 272.258 219.058 272.578 219.711C272.911 220.351 273.078 221.164 273.078 222.151V227.891C273.078 228.024 273.031 228.138 272.938 228.231C272.844 228.324 272.731 228.371 272.598 228.371H270.958C270.824 228.371 270.711 228.324 270.618 228.231C270.524 228.138 270.478 228.024 270.478 227.891V222.311C270.478 221.711 270.391 221.238 270.218 220.891C270.044 220.531 269.811 220.278 269.518 220.131C269.224 219.984 268.898 219.911 268.538 219.911C268.244 219.911 267.951 219.984 267.658 220.131C267.364 220.278 267.124 220.531 266.938 220.891C266.751 221.238 266.658 221.711 266.658 222.311V227.891C266.658 228.024 266.611 228.138 266.518 228.231C266.424 228.324 266.311 228.371 266.178 228.371H264.538C264.404 228.371 264.291 228.324 264.198 228.231C264.104 228.138 264.058 228.024 264.058 227.891V222.311C264.058 221.711 263.964 221.238 263.778 220.891C263.591 220.531 263.351 220.278 263.058 220.131C262.764 219.984 262.451 219.911 262.118 219.911C261.811 219.911 261.511 219.991 261.218 220.151C260.924 220.298 260.684 220.544 260.498 220.891C260.311 221.238 260.218 221.711 260.218 222.311V227.891C260.218 228.024 260.171 228.138 260.078 228.231C259.984 228.324 259.871 228.371 259.738 228.371H258.058ZM280.675 228.371C280.542 228.371 280.428 228.324 280.335 228.231C280.242 228.138 280.195 228.024 280.195 227.891V218.451C280.195 218.318 280.242 218.204 280.335 218.111C280.428 218.018 280.542 217.971 280.675 217.971H282.315C282.448 217.971 282.562 218.018 282.655 218.111C282.748 218.204 282.795 218.318 282.795 218.451V219.271C283.142 218.844 283.582 218.491 284.115 218.211C284.662 217.918 285.335 217.771 286.135 217.771C286.948 217.771 287.655 217.958 288.255 218.331C288.855 218.691 289.315 219.204 289.635 219.871C289.968 220.538 290.135 221.338 290.135 222.271V227.891C290.135 228.024 290.088 228.138 289.995 228.231C289.902 228.324 289.788 228.371 289.655 228.371H287.895C287.762 228.371 287.648 228.324 287.555 228.231C287.462 228.138 287.415 228.024 287.415 227.891V222.391C287.415 221.618 287.222 221.011 286.835 220.571C286.462 220.131 285.915 219.911 285.195 219.911C284.502 219.911 283.948 220.131 283.535 220.571C283.122 221.011 282.915 221.618 282.915 222.391V227.891C282.915 228.024 282.868 228.138 282.775 228.231C282.682 228.324 282.568 228.371 282.435 228.371H280.675ZM301.846 228.571C300.779 228.571 299.879 228.384 299.146 228.011C298.426 227.638 297.872 227.111 297.486 226.431C297.112 225.751 296.899 224.958 296.846 224.051C296.832 223.811 296.826 223.518 296.826 223.171C296.826 222.824 296.832 222.531 296.846 222.291C296.899 221.371 297.119 220.578 297.506 219.911C297.906 219.231 298.466 218.704 299.186 218.331C299.919 217.958 300.806 217.771 301.846 217.771C302.886 217.771 303.766 217.958 304.486 218.331C305.219 218.704 305.779 219.231 306.166 219.911C306.566 220.578 306.792 221.371 306.846 222.291C306.859 222.531 306.866 222.824 306.866 223.171C306.866 223.518 306.859 223.811 306.846 224.051C306.792 224.958 306.572 225.751 306.186 226.431C305.812 227.111 305.259 227.638 304.526 228.011C303.806 228.384 302.912 228.571 301.846 228.571ZM301.846 226.591C302.552 226.591 303.099 226.371 303.486 225.931C303.872 225.478 304.086 224.818 304.126 223.951C304.139 223.751 304.146 223.491 304.146 223.171C304.146 222.851 304.139 222.591 304.126 222.391C304.086 221.524 303.872 220.871 303.486 220.431C303.099 219.978 302.552 219.751 301.846 219.751C301.139 219.751 300.592 219.978 300.206 220.431C299.819 220.871 299.606 221.524 299.566 222.391C299.552 222.591 299.546 222.851 299.546 223.171C299.546 223.491 299.552 223.751 299.566 223.951C299.606 224.818 299.819 225.478 300.206 225.931C300.592 226.371 301.139 226.591 301.846 226.591ZM314.152 232.171C314.019 232.171 313.905 232.124 313.812 232.031C313.719 231.938 313.672 231.824 313.672 231.691V218.451C313.672 218.318 313.719 218.204 313.812 218.111C313.905 218.018 314.019 217.971 314.152 217.971H315.732C315.879 217.971 315.992 218.018 316.072 218.111C316.165 218.204 316.212 218.318 316.212 218.451V219.251C316.532 218.824 316.952 218.471 317.472 218.191C317.992 217.911 318.639 217.771 319.412 217.771C320.119 217.771 320.732 217.884 321.252 218.111C321.772 218.338 322.205 218.664 322.552 219.091C322.899 219.504 323.165 219.998 323.352 220.571C323.539 221.144 323.645 221.778 323.672 222.471C323.685 222.698 323.692 222.931 323.692 223.171C323.692 223.411 323.685 223.651 323.672 223.891C323.659 224.558 323.559 225.178 323.372 225.751C323.185 226.311 322.912 226.804 322.552 227.231C322.205 227.644 321.772 227.971 321.252 228.211C320.732 228.451 320.119 228.571 319.412 228.571C318.692 228.571 318.079 228.444 317.572 228.191C317.065 227.924 316.652 227.578 316.332 227.151V231.691C316.332 231.824 316.285 231.938 316.192 232.031C316.112 232.124 315.999 232.171 315.852 232.171H314.152ZM318.672 226.431C319.245 226.431 319.692 226.311 320.012 226.071C320.332 225.818 320.565 225.491 320.712 225.091C320.859 224.691 320.945 224.251 320.972 223.771C320.985 223.371 320.985 222.971 320.972 222.571C320.945 222.091 320.859 221.651 320.712 221.251C320.565 220.851 320.332 220.531 320.012 220.291C319.692 220.038 319.245 219.911 318.672 219.911C318.125 219.911 317.679 220.038 317.332 220.291C316.999 220.544 316.752 220.871 316.592 221.271C316.445 221.658 316.359 222.058 316.332 222.471C316.319 222.711 316.312 222.964 316.312 223.231C316.312 223.498 316.319 223.758 316.332 224.011C316.345 224.411 316.439 224.798 316.612 225.171C316.785 225.531 317.039 225.831 317.372 226.071C317.705 226.311 318.139 226.431 318.672 226.431ZM337.928 232.171C337.794 232.171 337.681 232.124 337.588 232.031C337.494 231.938 337.448 231.824 337.448 231.691V227.151C337.128 227.578 336.714 227.924 336.208 228.191C335.701 228.444 335.088 228.571 334.368 228.571C333.688 228.571 333.081 228.451 332.548 228.211C332.028 227.971 331.588 227.644 331.228 227.231C330.881 226.804 330.614 226.311 330.428 225.751C330.241 225.178 330.134 224.558 330.108 223.891C330.094 223.651 330.088 223.411 330.088 223.171C330.088 222.931 330.094 222.698 330.108 222.471C330.148 221.778 330.254 221.144 330.428 220.571C330.614 219.998 330.881 219.504 331.228 219.091C331.588 218.664 332.028 218.338 332.548 218.111C333.081 217.884 333.688 217.771 334.368 217.771C335.141 217.771 335.788 217.911 336.308 218.191C336.841 218.471 337.261 218.824 337.568 219.251V218.451C337.568 218.318 337.614 218.204 337.708 218.111C337.801 218.018 337.914 217.971 338.048 217.971H339.648C339.781 217.971 339.894 218.018 339.988 218.111C340.081 218.204 340.128 218.318 340.128 218.451V231.691C340.128 231.824 340.081 231.938 339.988 232.031C339.894 232.124 339.781 232.171 339.648 232.171H337.928ZM335.128 226.431C335.661 226.431 336.094 226.311 336.428 226.071C336.761 225.831 337.008 225.531 337.168 225.171C337.341 224.798 337.434 224.411 337.448 224.011C337.474 223.758 337.488 223.498 337.488 223.231C337.488 222.964 337.474 222.711 337.448 222.471C337.434 222.058 337.348 221.658 337.188 221.271C337.028 220.871 336.781 220.544 336.448 220.291C336.114 220.038 335.674 219.911 335.128 219.911C334.568 219.911 334.121 220.038 333.788 220.291C333.454 220.531 333.214 220.851 333.068 221.251C332.934 221.651 332.854 222.091 332.828 222.571C332.801 222.971 332.801 223.371 332.828 223.771C332.854 224.251 332.934 224.691 333.068 225.091C333.214 225.491 333.454 225.818 333.788 226.071C334.121 226.311 334.568 226.431 335.128 226.431ZM347.843 228.371C347.71 228.371 347.596 228.324 347.503 228.231C347.41 228.138 347.363 228.024 347.363 227.891V218.471C347.363 218.324 347.41 218.204 347.503 218.111C347.596 218.018 347.71 217.971 347.843 217.971H349.463C349.596 217.971 349.71 218.018 349.803 218.111C349.91 218.204 349.963 218.324 349.963 218.471V219.291C350.27 218.864 350.663 218.538 351.143 218.311C351.636 218.084 352.203 217.971 352.843 217.971H353.663C353.81 217.971 353.923 218.018 354.003 218.111C354.096 218.204 354.143 218.318 354.143 218.451V219.891C354.143 220.024 354.096 220.138 354.003 220.231C353.923 220.324 353.81 220.371 353.663 220.371H352.103C351.463 220.371 350.963 220.551 350.603 220.911C350.256 221.258 350.083 221.751 350.083 222.391V227.891C350.083 228.024 350.036 228.138 349.943 228.231C349.85 228.324 349.73 228.371 349.583 228.371H347.843ZM226.069 254.571C225.269 254.571 224.582 254.478 224.009 254.291C223.449 254.104 222.989 253.871 222.629 253.591C222.269 253.311 222.002 253.031 221.829 252.751C221.655 252.471 221.562 252.238 221.549 252.051C221.535 251.904 221.575 251.791 221.669 251.711C221.775 251.618 221.889 251.571 222.009 251.571H223.589C223.642 251.571 223.689 251.578 223.729 251.591C223.769 251.604 223.822 251.644 223.889 251.711C224.062 251.858 224.242 252.011 224.429 252.171C224.629 252.331 224.862 252.471 225.129 252.591C225.395 252.698 225.729 252.751 226.129 252.751C226.649 252.751 227.082 252.651 227.429 252.451C227.789 252.238 227.969 251.938 227.969 251.551C227.969 251.271 227.889 251.044 227.729 250.871C227.582 250.698 227.302 250.544 226.889 250.411C226.475 250.264 225.889 250.111 225.129 249.951C224.382 249.778 223.762 249.558 223.269 249.291C222.775 249.024 222.409 248.691 222.169 248.291C221.929 247.891 221.809 247.424 221.809 246.891C221.809 246.371 221.962 245.878 222.269 245.411C222.589 244.931 223.055 244.538 223.669 244.231C224.295 243.924 225.069 243.771 225.989 243.771C226.709 243.771 227.335 243.864 227.869 244.051C228.402 244.224 228.842 244.444 229.189 244.711C229.549 244.978 229.822 245.251 230.009 245.531C230.195 245.798 230.295 246.031 230.309 246.231C230.322 246.378 230.282 246.498 230.189 246.591C230.095 246.671 229.989 246.711 229.869 246.711H228.389C228.322 246.711 228.262 246.698 228.209 246.671C228.155 246.644 228.102 246.611 228.049 246.571C227.902 246.438 227.742 246.298 227.569 246.151C227.395 245.991 227.182 245.858 226.929 245.751C226.689 245.644 226.369 245.591 225.969 245.591C225.462 245.591 225.075 245.704 224.809 245.931C224.542 246.144 224.409 246.418 224.409 246.751C224.409 246.978 224.469 247.178 224.589 247.351C224.722 247.511 224.982 247.664 225.369 247.811C225.755 247.958 226.342 248.111 227.129 248.271C228.022 248.431 228.729 248.671 229.249 248.991C229.782 249.298 230.155 249.658 230.369 250.071C230.595 250.471 230.709 250.918 230.709 251.411C230.709 252.011 230.529 252.551 230.169 253.031C229.822 253.511 229.302 253.891 228.609 254.171C227.929 254.438 227.082 254.571 226.069 254.571ZM241.653 254.371C240.853 254.371 240.179 254.231 239.633 253.951C239.086 253.671 238.679 253.258 238.413 252.711C238.146 252.151 238.013 251.458 238.013 250.631V246.091H236.433C236.299 246.091 236.186 246.044 236.093 245.951C235.999 245.858 235.953 245.738 235.953 245.591V244.451C235.953 244.318 235.999 244.204 236.093 244.111C236.186 244.018 236.299 243.971 236.433 243.971H238.013V240.651C238.013 240.518 238.053 240.404 238.133 240.311C238.226 240.218 238.346 240.171 238.493 240.171H240.113C240.246 240.171 240.359 240.218 240.453 240.311C240.546 240.404 240.593 240.518 240.593 240.651V243.971H243.093C243.226 243.971 243.339 244.018 243.433 244.111C243.526 244.204 243.573 244.318 243.573 244.451V245.591C243.573 245.738 243.526 245.858 243.433 245.951C243.339 246.044 243.226 246.091 243.093 246.091H240.593V250.431C240.593 250.978 240.686 251.404 240.873 251.711C241.073 252.018 241.413 252.171 241.893 252.171H243.273C243.406 252.171 243.519 252.218 243.613 252.311C243.706 252.404 243.753 252.518 243.753 252.651V253.891C243.753 254.024 243.706 254.138 243.613 254.231C243.519 254.324 243.406 254.371 243.273 254.371H241.653ZM253.957 254.571C253.144 254.571 252.437 254.391 251.837 254.031C251.251 253.658 250.797 253.138 250.477 252.471C250.157 251.791 249.997 250.991 249.997 250.071V244.451C249.997 244.318 250.044 244.204 250.137 244.111C250.231 244.018 250.344 243.971 250.477 243.971H252.237C252.384 243.971 252.497 244.018 252.577 244.111C252.671 244.204 252.717 244.318 252.717 244.451V249.951C252.717 251.604 253.444 252.431 254.897 252.431C255.591 252.431 256.137 252.211 256.537 251.771C256.951 251.331 257.157 250.724 257.157 249.951V244.451C257.157 244.318 257.204 244.204 257.297 244.111C257.391 244.018 257.504 243.971 257.637 243.971H259.397C259.531 243.971 259.644 244.018 259.737 244.111C259.831 244.204 259.877 244.318 259.877 244.451V253.891C259.877 254.024 259.831 254.138 259.737 254.231C259.644 254.324 259.531 254.371 259.397 254.371H257.777C257.631 254.371 257.511 254.324 257.417 254.231C257.337 254.138 257.297 254.024 257.297 253.891V253.071C256.937 253.538 256.491 253.904 255.957 254.171C255.424 254.438 254.757 254.571 253.957 254.571ZM270.242 254.371C270.029 254.371 269.869 254.324 269.762 254.231C269.669 254.124 269.589 254.004 269.522 253.871L265.782 244.591C265.756 244.524 265.742 244.464 265.742 244.411C265.742 244.291 265.782 244.191 265.862 244.111C265.956 244.018 266.062 243.971 266.182 243.971H267.802C267.962 243.971 268.082 244.018 268.162 244.111C268.242 244.191 268.296 244.271 268.322 244.351L270.982 251.371L273.642 244.351C273.669 244.271 273.722 244.191 273.802 244.111C273.882 244.018 274.002 243.971 274.162 243.971H275.802C275.909 243.971 276.002 244.018 276.082 244.111C276.176 244.191 276.222 244.291 276.222 244.411C276.222 244.464 276.216 244.524 276.202 244.591L272.442 253.871C272.389 254.004 272.309 254.124 272.202 254.231C272.096 254.324 271.936 254.371 271.722 254.371H270.242ZM284.48 254.371C284.294 254.371 284.154 254.324 284.06 254.231C283.967 254.138 283.887 254.018 283.82 253.871L280.96 244.591C280.947 244.524 280.94 244.464 280.94 244.411C280.94 244.291 280.98 244.191 281.06 244.111C281.154 244.018 281.254 243.971 281.36 243.971H282.84C283 243.971 283.127 244.018 283.22 244.111C283.314 244.191 283.367 244.271 283.38 244.351L285.34 250.971L287.42 244.411C287.447 244.318 287.507 244.224 287.6 244.131C287.694 244.024 287.834 243.971 288.02 243.971H289.02C289.207 243.971 289.347 244.024 289.44 244.131C289.534 244.224 289.594 244.318 289.62 244.411L291.7 250.971L293.66 244.351C293.674 244.271 293.72 244.191 293.8 244.111C293.894 244.018 294.02 243.971 294.18 243.971H295.66C295.78 243.971 295.88 244.018 295.96 244.111C296.054 244.191 296.1 244.291 296.1 244.411C296.1 244.464 296.087 244.524 296.06 244.591L293.2 253.871C293.16 254.018 293.087 254.138 292.98 254.231C292.887 254.324 292.747 254.371 292.56 254.371H291.26C291.087 254.371 290.94 254.324 290.82 254.231C290.714 254.138 290.64 254.018 290.6 253.871L288.52 247.551L286.44 253.871C286.387 254.018 286.307 254.138 286.2 254.231C286.107 254.324 285.96 254.371 285.76 254.371H284.48ZM301.728 254.371C301.608 254.371 301.501 254.331 301.408 254.251C301.328 254.158 301.288 254.051 301.288 253.931C301.288 253.891 301.294 253.844 301.308 253.791C301.334 253.738 301.374 253.671 301.428 253.591L304.828 249.031L301.668 244.751C301.628 244.684 301.594 244.624 301.568 244.571C301.554 244.518 301.548 244.464 301.548 244.411C301.548 244.291 301.588 244.191 301.668 244.111C301.761 244.018 301.868 243.971 301.988 243.971H303.728C303.888 243.971 304.008 244.011 304.088 244.091C304.168 244.171 304.228 244.244 304.268 244.311L306.528 247.311L308.788 244.311C308.841 244.244 308.901 244.171 308.968 244.091C309.048 244.011 309.168 243.971 309.328 243.971H310.988C311.108 243.971 311.208 244.018 311.288 244.111C311.381 244.191 311.428 244.284 311.428 244.391C311.428 244.458 311.414 244.518 311.388 244.571C311.374 244.624 311.348 244.684 311.308 244.751L308.108 249.071L311.528 253.591C311.581 253.671 311.614 253.738 311.628 253.791C311.654 253.844 311.668 253.891 311.668 253.931C311.668 254.051 311.621 254.158 311.528 254.251C311.448 254.331 311.348 254.371 311.228 254.371H309.408C309.261 254.371 309.148 254.338 309.068 254.271C308.988 254.191 308.921 254.118 308.868 254.051L306.468 250.871L304.028 254.051C303.974 254.118 303.908 254.191 303.828 254.271C303.761 254.338 303.648 254.371 303.488 254.371H301.728ZM319.38 258.171C319.273 258.171 319.18 258.131 319.1 258.051C319.02 257.971 318.98 257.878 318.98 257.771C318.98 257.718 318.98 257.664 318.98 257.611C318.993 257.571 319.02 257.518 319.06 257.451L320.62 253.751L316.78 244.691C316.726 244.558 316.7 244.464 316.7 244.411C316.713 244.291 316.76 244.191 316.84 244.111C316.92 244.018 317.02 243.971 317.14 243.971H318.76C318.92 243.971 319.04 244.011 319.12 244.091C319.2 244.171 319.26 244.258 319.3 244.351L321.96 250.891L324.7 244.351C324.74 244.244 324.8 244.158 324.88 244.091C324.96 244.011 325.08 243.971 325.24 243.971H326.84C326.946 243.971 327.04 244.011 327.12 244.091C327.213 244.171 327.26 244.264 327.26 244.371C327.26 244.451 327.233 244.558 327.18 244.691L321.52 257.791C321.466 257.898 321.4 257.984 321.32 258.051C321.24 258.131 321.12 258.171 320.96 258.171H319.38ZM332.987 254.371C332.84 254.371 332.72 254.324 332.627 254.231C332.547 254.138 332.507 254.024 332.507 253.891V252.751C332.507 252.631 332.534 252.518 332.587 252.411C332.654 252.291 332.72 252.191 332.787 252.111L337.907 246.051H333.147C333.014 246.051 332.9 246.011 332.807 245.931C332.714 245.838 332.667 245.718 332.667 245.571V244.451C332.667 244.318 332.714 244.204 332.807 244.111C332.9 244.018 333.014 243.971 333.147 243.971H340.727C340.874 243.971 340.987 244.018 341.067 244.111C341.16 244.204 341.207 244.318 341.207 244.451V245.671C341.207 245.791 341.18 245.898 341.127 245.991C341.074 246.084 341.007 246.178 340.927 246.271L335.927 252.291H341.147C341.28 252.291 341.394 252.338 341.487 252.431C341.58 252.511 341.627 252.624 341.627 252.771V253.891C341.627 254.024 341.58 254.138 341.487 254.231C341.394 254.324 341.28 254.371 341.147 254.371H332.987Z" fill="white"/>
<path d="M32.7119 292.371C32.5652 292.371 32.4452 292.324 32.3519 292.231C32.2719 292.138 32.2319 292.024 32.2319 291.891V281.531L29.1919 283.871C29.0719 283.951 28.9519 283.984 28.8319 283.971C28.7119 283.944 28.6052 283.871 28.5119 283.751L27.6719 282.671C27.5919 282.551 27.5585 282.424 27.5719 282.291C27.5985 282.158 27.6719 282.051 27.7919 281.971L32.2719 278.511C32.3519 278.444 32.4319 278.404 32.5119 278.391C32.5919 278.378 32.6785 278.371 32.7719 278.371H34.5319C34.6652 278.371 34.7785 278.418 34.8719 278.511C34.9652 278.604 35.0119 278.718 35.0119 278.851V291.891C35.0119 292.024 34.9652 292.138 34.8719 292.231C34.7785 292.324 34.6652 292.371 34.5319 292.371H32.7119ZM42.38 292.371C42.2467 292.371 42.1333 292.324 42.04 292.231C41.9467 292.138 41.9 292.024 41.9 291.891V290.871C41.9 290.751 41.9267 290.611 41.98 290.451C42.0467 290.278 42.1867 290.104 42.4 289.931L45.56 286.791C46.44 286.098 47.1467 285.511 47.68 285.031C48.2267 284.538 48.62 284.091 48.86 283.691C49.1133 283.278 49.24 282.871 49.24 282.471C49.24 281.871 49.0733 281.384 48.74 281.011C48.42 280.638 47.9067 280.451 47.2 280.451C46.7333 280.451 46.34 280.551 46.02 280.751C45.7 280.938 45.4467 281.191 45.26 281.511C45.0867 281.831 44.9667 282.184 44.9 282.571C44.8733 282.744 44.8 282.864 44.68 282.931C44.56 282.998 44.44 283.031 44.32 283.031H42.54C42.42 283.031 42.32 282.991 42.24 282.911C42.16 282.831 42.12 282.738 42.12 282.631C42.1333 282.058 42.2533 281.504 42.48 280.971C42.7067 280.424 43.0333 279.944 43.46 279.531C43.9 279.104 44.4333 278.764 45.06 278.511C45.6867 278.258 46.3933 278.131 47.18 278.131C48.2867 278.131 49.2 278.318 49.92 278.691C50.6533 279.064 51.2 279.571 51.56 280.211C51.9333 280.851 52.12 281.571 52.12 282.371C52.12 282.998 52 283.578 51.76 284.111C51.52 284.631 51.1733 285.138 50.72 285.631C50.2667 286.111 49.72 286.604 49.08 287.111L46.24 289.991H51.94C52.0867 289.991 52.2 290.038 52.28 290.131C52.3733 290.211 52.42 290.324 52.42 290.471V291.891C52.42 292.024 52.3733 292.138 52.28 292.231C52.2 292.324 52.0867 292.371 51.94 292.371H42.38ZM64.1731 292.571C63.2398 292.571 62.4331 292.458 61.7531 292.231C61.0731 292.004 60.5065 291.711 60.0531 291.351C59.6131 290.978 59.2798 290.578 59.0531 290.151C58.8265 289.711 58.7065 289.278 58.6931 288.851C58.6931 288.731 58.7331 288.638 58.8131 288.571C58.9065 288.491 59.0131 288.451 59.1331 288.451H60.9331C61.0665 288.451 61.1798 288.478 61.2731 288.531C61.3665 288.584 61.4465 288.691 61.5131 288.851C61.6331 289.211 61.8265 289.498 62.0931 289.711C62.3731 289.924 62.6931 290.078 63.0531 290.171C63.4131 290.251 63.7931 290.291 64.1931 290.291C64.9931 290.291 65.6265 290.104 66.0931 289.731C66.5731 289.344 66.8131 288.798 66.8131 288.091C66.8131 287.384 66.5931 286.878 66.1531 286.571C65.7131 286.251 65.0998 286.091 64.3131 286.091H62.2531C62.1065 286.091 61.9865 286.051 61.8931 285.971C61.7998 285.878 61.7531 285.758 61.7531 285.611V284.771C61.7531 284.638 61.7798 284.524 61.8331 284.431C61.8998 284.324 61.9665 284.238 62.0331 284.171L65.6131 280.671H59.8931C59.7465 280.671 59.6265 280.624 59.5331 280.531C59.4531 280.438 59.4131 280.324 59.4131 280.191V278.871C59.4131 278.724 59.4531 278.604 59.5331 278.511C59.6265 278.418 59.7465 278.371 59.8931 278.371H68.4731C68.6198 278.371 68.7398 278.418 68.8331 278.511C68.9265 278.604 68.9731 278.724 68.9731 278.871V280.071C68.9731 280.191 68.9465 280.298 68.8931 280.391C68.8398 280.484 68.7798 280.564 68.7131 280.631L65.2531 284.191L65.4931 284.211C66.3065 284.278 67.0265 284.464 67.6531 284.771C68.2931 285.064 68.7865 285.498 69.1331 286.071C69.4931 286.644 69.6731 287.364 69.6731 288.231C69.6731 289.138 69.4331 289.918 68.9531 290.571C68.4865 291.211 67.8398 291.704 67.0131 292.051C66.1865 292.398 65.2398 292.571 64.1731 292.571ZM83.0211 292.371C82.8878 292.371 82.7744 292.324 82.6811 292.231C82.5878 292.138 82.5411 292.024 82.5411 291.891V289.331H76.2011C76.0544 289.331 75.9344 289.284 75.8411 289.191C75.7611 289.098 75.7211 288.984 75.7211 288.851V287.491C75.7211 287.411 75.7344 287.318 75.7611 287.211C75.8011 287.091 75.8611 286.984 75.9411 286.891L81.8411 278.711C82.0144 278.484 82.2611 278.371 82.5811 278.371H84.7611C84.8944 278.371 85.0078 278.418 85.1011 278.511C85.1944 278.604 85.2411 278.718 85.2411 278.851V286.971H87.0211C87.1811 286.971 87.3011 287.018 87.3811 287.111C87.4744 287.191 87.5211 287.304 87.5211 287.451V288.851C87.5211 288.984 87.4744 289.098 87.3811 289.191C87.2878 289.284 87.1744 289.331 87.0411 289.331H85.2411V291.891C85.2411 292.024 85.1944 292.138 85.1011 292.231C85.0078 292.324 84.8944 292.371 84.7611 292.371H83.0211ZM78.5011 287.051H82.6011V281.271L78.5011 287.051ZM98.8583 292.591C97.7116 292.591 96.7449 292.404 95.9583 292.031C95.1716 291.644 94.5716 291.144 94.1583 290.531C93.7583 289.918 93.5449 289.264 93.5183 288.571C93.5049 288.451 93.5383 288.358 93.6183 288.291C93.7116 288.211 93.8183 288.171 93.9383 288.171H95.7983C95.9449 288.171 96.0649 288.204 96.1583 288.271C96.2649 288.324 96.3449 288.424 96.3983 288.571C96.5316 288.971 96.7183 289.298 96.9583 289.551C97.2116 289.804 97.4983 289.991 97.8183 290.111C98.1516 290.231 98.4983 290.291 98.8583 290.291C99.3383 290.291 99.7716 290.198 100.158 290.011C100.558 289.811 100.878 289.518 101.118 289.131C101.358 288.744 101.478 288.271 101.478 287.711C101.478 287.218 101.365 286.791 101.138 286.431C100.912 286.071 100.598 285.791 100.198 285.591C99.8116 285.378 99.3649 285.271 98.8583 285.271C98.4849 285.271 98.1783 285.318 97.9383 285.411C97.6983 285.504 97.4916 285.611 97.3183 285.731C97.1583 285.851 97.0116 285.958 96.8783 286.051C96.7583 286.144 96.6183 286.191 96.4583 286.191H94.6183C94.4983 286.191 94.3916 286.151 94.2983 286.071C94.2183 285.978 94.1783 285.871 94.1783 285.751L94.8783 278.911C94.8916 278.738 94.9516 278.604 95.0583 278.511C95.1649 278.418 95.2916 278.371 95.4383 278.371H102.958C103.092 278.371 103.205 278.418 103.298 278.511C103.392 278.604 103.438 278.718 103.438 278.851V280.191C103.438 280.324 103.392 280.438 103.298 280.531C103.205 280.624 103.092 280.671 102.958 280.671H97.1783L96.8583 283.931C97.0983 283.771 97.4183 283.618 97.8183 283.471C98.2183 283.324 98.7716 283.251 99.4783 283.251C100.118 283.251 100.725 283.358 101.298 283.571C101.885 283.771 102.405 284.071 102.858 284.471C103.312 284.858 103.665 285.331 103.918 285.891C104.185 286.438 104.318 287.064 104.318 287.771C104.318 288.744 104.092 289.591 103.638 290.311C103.185 291.031 102.552 291.591 101.738 291.991C100.925 292.391 99.9649 292.591 98.8583 292.591ZM116.091 292.571C114.944 292.571 113.958 292.358 113.131 291.931C112.304 291.491 111.664 290.904 111.211 290.171C110.758 289.424 110.531 288.591 110.531 287.671C110.531 287.258 110.584 286.858 110.691 286.471C110.798 286.084 110.938 285.718 111.111 285.371C111.284 285.024 111.451 284.718 111.611 284.451C111.784 284.171 111.938 283.951 112.071 283.791L115.731 278.771C115.784 278.704 115.864 278.624 115.971 278.531C116.078 278.424 116.224 278.371 116.411 278.371H118.271C118.391 278.371 118.491 278.418 118.571 278.511C118.651 278.591 118.691 278.691 118.691 278.811C118.691 278.864 118.678 278.918 118.651 278.971C118.638 279.011 118.618 279.044 118.591 279.071L115.791 282.951C115.911 282.911 116.051 282.884 116.211 282.871C116.371 282.858 116.518 282.851 116.651 282.851C117.318 282.864 117.951 282.998 118.551 283.251C119.151 283.491 119.678 283.824 120.131 284.251C120.584 284.678 120.938 285.178 121.191 285.751C121.458 286.324 121.591 286.951 121.591 287.631C121.591 288.511 121.371 289.331 120.931 290.091C120.491 290.838 119.858 291.438 119.031 291.891C118.218 292.344 117.238 292.571 116.091 292.571ZM116.071 290.271C116.551 290.271 116.991 290.171 117.391 289.971C117.804 289.771 118.138 289.478 118.391 289.091C118.644 288.704 118.771 288.224 118.771 287.651C118.771 287.091 118.644 286.618 118.391 286.231C118.138 285.844 117.804 285.551 117.391 285.351C116.991 285.151 116.551 285.051 116.071 285.051C115.591 285.051 115.144 285.151 114.731 285.351C114.331 285.551 114.004 285.844 113.751 286.231C113.498 286.618 113.371 287.091 113.371 287.651C113.371 288.224 113.498 288.704 113.751 289.091C114.004 289.478 114.331 289.771 114.731 289.971C115.144 290.171 115.591 290.271 116.071 290.271ZM129.72 292.371C129.6 292.371 129.5 292.331 129.42 292.251C129.34 292.158 129.3 292.051 129.3 291.931C129.3 291.878 129.314 291.818 129.34 291.751L134.16 280.751H127.88C127.734 280.751 127.614 280.704 127.52 280.611C127.44 280.518 127.4 280.404 127.4 280.271V278.871C127.4 278.724 127.44 278.604 127.52 278.511C127.614 278.418 127.734 278.371 127.88 278.371H136.66C136.807 278.371 136.92 278.418 137 278.511C137.094 278.604 137.14 278.724 137.14 278.871V280.111C137.14 280.298 137.12 280.458 137.08 280.591C137.054 280.711 137.014 280.838 136.96 280.971L132.18 291.891C132.14 291.984 132.067 292.091 131.96 292.211C131.867 292.318 131.727 292.371 131.54 292.371H129.72ZM148.81 292.571C147.93 292.571 147.143 292.464 146.45 292.251C145.757 292.038 145.17 291.738 144.69 291.351C144.223 290.964 143.863 290.511 143.61 289.991C143.37 289.471 143.25 288.891 143.25 288.251C143.25 287.478 143.437 286.811 143.81 286.251C144.197 285.678 144.697 285.238 145.31 284.931C144.817 284.624 144.43 284.231 144.15 283.751C143.883 283.271 143.75 282.711 143.75 282.071C143.75 281.298 143.943 280.624 144.33 280.051C144.73 279.464 145.303 279.004 146.05 278.671C146.81 278.338 147.73 278.171 148.81 278.171C149.89 278.171 150.803 278.338 151.55 278.671C152.297 278.991 152.863 279.444 153.25 280.031C153.637 280.604 153.83 281.278 153.83 282.051C153.83 282.691 153.697 283.251 153.43 283.731C153.163 284.211 152.79 284.611 152.31 284.931C152.937 285.224 153.437 285.664 153.81 286.251C154.183 286.824 154.37 287.498 154.37 288.271C154.37 289.111 154.15 289.858 153.71 290.511C153.283 291.151 152.65 291.658 151.81 292.031C150.983 292.391 149.983 292.571 148.81 292.571ZM148.81 290.491C149.33 290.491 149.797 290.404 150.21 290.231C150.637 290.044 150.97 289.784 151.21 289.451C151.463 289.118 151.59 288.724 151.59 288.271C151.59 287.804 151.463 287.411 151.21 287.091C150.97 286.758 150.637 286.504 150.21 286.331C149.797 286.144 149.33 286.051 148.81 286.051C148.29 286.051 147.817 286.144 147.39 286.331C146.977 286.504 146.643 286.758 146.39 287.091C146.15 287.411 146.03 287.804 146.03 288.271C146.03 288.724 146.15 289.118 146.39 289.451C146.643 289.784 146.977 290.044 147.39 290.231C147.817 290.404 148.29 290.491 148.81 290.491ZM148.81 284.071C149.25 284.058 149.65 283.971 150.01 283.811C150.383 283.651 150.677 283.431 150.89 283.151C151.117 282.871 151.23 282.544 151.23 282.171C151.23 281.784 151.123 281.451 150.91 281.171C150.71 280.878 150.423 280.651 150.05 280.491C149.69 280.331 149.277 280.251 148.81 280.251C148.343 280.251 147.923 280.331 147.55 280.491C147.19 280.651 146.903 280.878 146.69 281.171C146.49 281.451 146.39 281.784 146.39 282.171C146.39 282.558 146.49 282.891 146.69 283.171C146.903 283.451 147.19 283.671 147.55 283.831C147.923 283.991 148.343 284.071 148.81 284.071ZM163.625 292.371C163.505 292.371 163.405 292.331 163.325 292.251C163.245 292.158 163.205 292.051 163.205 291.931C163.205 291.864 163.212 291.811 163.225 291.771C163.252 291.731 163.272 291.698 163.285 291.671L166.225 287.611C165.972 287.678 165.699 287.704 165.405 287.691C164.725 287.678 164.092 287.551 163.505 287.311C162.932 287.058 162.425 286.724 161.985 286.311C161.559 285.884 161.219 285.398 160.965 284.851C160.725 284.291 160.605 283.684 160.605 283.031C160.605 282.431 160.719 281.844 160.945 281.271C161.172 280.684 161.505 280.158 161.945 279.691C162.399 279.224 162.959 278.858 163.625 278.591C164.305 278.311 165.099 278.171 166.005 278.171C166.899 278.171 167.685 278.298 168.365 278.551C169.045 278.804 169.612 279.158 170.065 279.611C170.532 280.051 170.879 280.558 171.105 281.131C171.345 281.704 171.465 282.311 171.465 282.951C171.465 283.524 171.372 284.058 171.185 284.551C170.999 285.044 170.765 285.498 170.485 285.911C170.219 286.311 169.952 286.704 169.685 287.091L166.165 291.971C166.112 292.038 166.032 292.124 165.925 292.231C165.832 292.324 165.685 292.371 165.485 292.371H163.625ZM166.025 285.571C166.505 285.571 166.939 285.471 167.325 285.271C167.725 285.058 168.039 284.764 168.265 284.391C168.505 284.004 168.625 283.551 168.625 283.031C168.625 282.498 168.505 282.044 168.265 281.671C168.039 281.284 167.725 280.991 167.325 280.791C166.925 280.578 166.492 280.471 166.025 280.471C165.545 280.471 165.105 280.578 164.705 280.791C164.319 280.991 164.005 281.284 163.765 281.671C163.539 282.044 163.425 282.498 163.425 283.031C163.425 283.551 163.539 284.004 163.765 284.391C164.005 284.764 164.319 285.058 164.705 285.271C165.105 285.471 165.545 285.571 166.025 285.571ZM182.399 292.371C182.253 292.371 182.133 292.324 182.039 292.231C181.959 292.138 181.919 292.024 181.919 291.891V281.531L178.879 283.871C178.759 283.951 178.639 283.984 178.519 283.971C178.399 283.944 178.293 283.871 178.199 283.751L177.359 282.671C177.279 282.551 177.246 282.424 177.259 282.291C177.286 282.158 177.359 282.051 177.479 281.971L181.959 278.511C182.039 278.444 182.119 278.404 182.199 278.391C182.279 278.378 182.366 278.371 182.459 278.371H184.219C184.353 278.371 184.466 278.418 184.559 278.511C184.653 278.604 184.699 278.718 184.699 278.851V291.891C184.699 292.024 184.653 292.138 184.559 292.231C184.466 292.324 184.353 292.371 184.219 292.371H182.399ZM192.677 292.571C191.731 292.571 190.924 292.431 190.257 292.151C189.591 291.871 189.044 291.484 188.617 290.991C188.191 290.498 187.871 289.931 187.657 289.291C187.444 288.638 187.317 287.944 187.277 287.211C187.264 286.851 187.251 286.458 187.237 286.031C187.237 285.591 187.237 285.151 187.237 284.711C187.251 284.271 187.264 283.864 187.277 283.491C187.304 282.758 187.431 282.071 187.657 281.431C187.884 280.778 188.211 280.211 188.637 279.731C189.077 279.251 189.631 278.871 190.297 278.591C190.964 278.311 191.757 278.171 192.677 278.171C193.611 278.171 194.411 278.311 195.077 278.591C195.744 278.871 196.291 279.251 196.717 279.731C197.157 280.211 197.484 280.778 197.697 281.431C197.924 282.071 198.051 282.758 198.077 283.491C198.104 283.864 198.117 284.271 198.117 284.711C198.117 285.151 198.117 285.591 198.117 286.031C198.117 286.458 198.104 286.851 198.077 287.211C198.051 287.944 197.931 288.638 197.717 289.291C197.504 289.931 197.184 290.498 196.757 290.991C196.331 291.484 195.777 291.871 195.097 292.151C194.431 292.431 193.624 292.571 192.677 292.571ZM192.677 290.271C193.544 290.271 194.177 289.991 194.577 289.431C194.991 288.858 195.204 288.084 195.217 287.111C195.244 286.724 195.257 286.338 195.257 285.951C195.257 285.551 195.257 285.151 195.257 284.751C195.257 284.351 195.244 283.971 195.217 283.611C195.204 282.664 194.991 281.904 194.577 281.331C194.177 280.744 193.544 280.451 192.677 280.451C191.824 280.451 191.191 280.744 190.777 281.331C190.377 281.904 190.164 282.664 190.137 283.611C190.137 283.971 190.131 284.351 190.117 284.751C190.117 285.151 190.117 285.551 190.117 285.951C190.131 286.338 190.137 286.724 190.137 287.111C190.164 288.084 190.384 288.858 190.797 289.431C191.211 289.991 191.837 290.271 192.677 290.271Z" fill="white"/>
</svg>
