<svg width="389" height="324" viewBox="0 0 389 324" fill="none" xmlns="http://www.w3.org/2000/svg">
<rect y="0.871094" width="389" height="323" rx="32" fill="white"/>
<rect x="31" y="34.8711" width="73.5" height="255" rx="24" fill="#B8B8B8"/>
<path d="M45.35 267.481C45.29 267.481 45.2367 267.461 45.19 267.421C45.15 267.381 45.1333 267.331 45.14 267.271L45.3 266.181H44.45C44.3833 266.181 44.3267 266.161 44.28 266.121C44.24 266.074 44.22 266.018 44.22 265.951V265.391C44.22 265.318 44.24 265.261 44.28 265.221C44.3267 265.181 44.3833 265.161 44.45 265.161H45.45L45.68 263.641H44.71C44.6433 263.641 44.5867 263.621 44.54 263.581C44.5 263.534 44.48 263.478 44.48 263.411V262.851C44.48 262.778 44.5 262.721 44.54 262.681C44.5867 262.641 44.6433 262.621 44.71 262.621H45.83L46 261.531C46.0133 261.478 46.0367 261.431 46.07 261.391C46.11 261.344 46.1633 261.321 46.23 261.321H46.81C46.87 261.321 46.92 261.341 46.96 261.381C47 261.421 47.0167 261.471 47.01 261.531L46.85 262.621H48.1L48.27 261.531C48.2833 261.478 48.3067 261.431 48.34 261.391C48.38 261.344 48.4333 261.321 48.5 261.321H49.08C49.14 261.321 49.19 261.341 49.23 261.381C49.27 261.421 49.2867 261.471 49.28 261.531L49.12 262.621H49.96C50.0267 262.621 50.08 262.641 50.12 262.681C50.1667 262.721 50.19 262.778 50.19 262.851V263.411C50.19 263.478 50.1667 263.534 50.12 263.581C50.08 263.621 50.0267 263.641 49.96 263.641H48.97L48.75 265.161H49.7C49.7667 265.161 49.82 265.181 49.86 265.221C49.9067 265.261 49.93 265.318 49.93 265.391V265.951C49.93 266.018 49.9067 266.074 49.86 266.121C49.82 266.161 49.7667 266.181 49.7 266.181H48.59L48.43 267.271C48.41 267.411 48.3333 267.481 48.2 267.481H47.62C47.56 267.481 47.5067 267.461 47.46 267.421C47.42 267.381 47.4033 267.331 47.41 267.271L47.57 266.181H46.32L46.16 267.271C46.14 267.411 46.0633 267.481 45.93 267.481H45.35ZM46.48 265.161H47.72L47.95 263.641H46.7L46.48 265.161ZM51.6841 267.871C51.6174 267.871 51.5607 267.848 51.5141 267.801C51.4674 267.754 51.4441 267.698 51.4441 267.631V261.121C51.4441 261.048 51.4674 260.988 51.5141 260.941C51.5607 260.894 51.6174 260.871 51.6841 260.871H54.5841C55.1241 260.871 55.5641 260.954 55.9041 261.121C56.2441 261.281 56.4941 261.504 56.6541 261.791C56.8207 262.078 56.9041 262.411 56.9041 262.791C56.9041 263.044 56.8574 263.268 56.7641 263.461C56.6774 263.648 56.5674 263.801 56.4341 263.921C56.3074 264.041 56.1807 264.134 56.0541 264.201C56.3141 264.321 56.5441 264.521 56.7441 264.801C56.9441 265.081 57.0441 265.414 57.0441 265.801C57.0441 266.201 56.9541 266.558 56.7741 266.871C56.5941 267.184 56.3274 267.431 55.9741 267.611C55.6207 267.784 55.1841 267.871 54.6641 267.871H51.6841ZM52.8341 266.811H54.5041C54.8641 266.811 55.1374 266.714 55.3241 266.521C55.5107 266.321 55.6041 266.081 55.6041 265.801C55.6041 265.508 55.5074 265.264 55.3141 265.071C55.1274 264.878 54.8574 264.781 54.5041 264.781H52.8341V266.811ZM52.8341 263.741H54.4041C54.7574 263.741 55.0207 263.658 55.1941 263.491C55.3741 263.318 55.4641 263.094 55.4641 262.821C55.4641 262.541 55.3741 262.321 55.1941 262.161C55.0207 262.001 54.7574 261.921 54.4041 261.921H52.8341V263.741ZM60.7995 267.971C60.3595 267.971 59.9662 267.918 59.6195 267.811C59.2729 267.704 58.9795 267.554 58.7395 267.361C58.5062 267.168 58.3262 266.941 58.1995 266.681C58.0795 266.421 58.0195 266.131 58.0195 265.811C58.0195 265.424 58.1129 265.091 58.2995 264.811C58.4929 264.524 58.7429 264.304 59.0495 264.151C58.8029 263.998 58.6095 263.801 58.4695 263.561C58.3362 263.321 58.2695 263.041 58.2695 262.721C58.2695 262.334 58.3662 261.998 58.5595 261.711C58.7595 261.418 59.0462 261.188 59.4195 261.021C59.7995 260.854 60.2595 260.771 60.7995 260.771C61.3395 260.771 61.7962 260.854 62.1695 261.021C62.5429 261.181 62.8262 261.408 63.0195 261.701C63.2129 261.988 63.3095 262.324 63.3095 262.711C63.3095 263.031 63.2429 263.311 63.1095 263.551C62.9762 263.791 62.7895 263.991 62.5495 264.151C62.8629 264.298 63.1129 264.518 63.2995 264.811C63.4862 265.098 63.5795 265.434 63.5795 265.821C63.5795 266.241 63.4695 266.614 63.2495 266.941C63.0362 267.261 62.7195 267.514 62.2995 267.701C61.8862 267.881 61.3862 267.971 60.7995 267.971ZM60.7995 266.931C61.0595 266.931 61.2929 266.888 61.4995 266.801C61.7129 266.708 61.8795 266.578 61.9995 266.411C62.1262 266.244 62.1895 266.048 62.1895 265.821C62.1895 265.588 62.1262 265.391 61.9995 265.231C61.8795 265.064 61.7129 264.938 61.4995 264.851C61.2929 264.758 61.0595 264.711 60.7995 264.711C60.5395 264.711 60.3029 264.758 60.0895 264.851C59.8829 264.938 59.7162 265.064 59.5895 265.231C59.4695 265.391 59.4095 265.588 59.4095 265.821C59.4095 266.048 59.4695 266.244 59.5895 266.411C59.7162 266.578 59.8829 266.708 60.0895 266.801C60.3029 266.888 60.5395 266.931 60.7995 266.931ZM60.7995 263.721C61.0195 263.714 61.2195 263.671 61.3995 263.591C61.5862 263.511 61.7329 263.401 61.8395 263.261C61.9529 263.121 62.0095 262.958 62.0095 262.771C62.0095 262.578 61.9562 262.411 61.8495 262.271C61.7495 262.124 61.6062 262.011 61.4195 261.931C61.2395 261.851 61.0329 261.811 60.7995 261.811C60.5662 261.811 60.3562 261.851 60.1695 261.931C59.9895 262.011 59.8462 262.124 59.7395 262.271C59.6395 262.411 59.5895 262.578 59.5895 262.771C59.5895 262.964 59.6395 263.131 59.7395 263.271C59.8462 263.411 59.9895 263.521 60.1695 263.601C60.3562 263.681 60.5662 263.721 60.7995 263.721ZM65.102 267.871C65.0354 267.871 64.9787 267.848 64.932 267.801C64.8854 267.754 64.862 267.698 64.862 267.631V261.121C64.862 261.048 64.8854 260.988 64.932 260.941C64.9787 260.894 65.0354 260.871 65.102 260.871H68.002C68.542 260.871 68.982 260.954 69.322 261.121C69.662 261.281 69.912 261.504 70.072 261.791C70.2387 262.078 70.322 262.411 70.322 262.791C70.322 263.044 70.2754 263.268 70.182 263.461C70.0954 263.648 69.9854 263.801 69.852 263.921C69.7254 264.041 69.5987 264.134 69.472 264.201C69.732 264.321 69.962 264.521 70.162 264.801C70.362 265.081 70.462 265.414 70.462 265.801C70.462 266.201 70.372 266.558 70.192 266.871C70.012 267.184 69.7454 267.431 69.392 267.611C69.0387 267.784 68.602 267.871 68.082 267.871H65.102ZM66.252 266.811H67.922C68.282 266.811 68.5554 266.714 68.742 266.521C68.9287 266.321 69.022 266.081 69.022 265.801C69.022 265.508 68.9254 265.264 68.732 265.071C68.5454 264.878 68.2754 264.781 67.922 264.781H66.252V266.811ZM66.252 263.741H67.822C68.1754 263.741 68.4387 263.658 68.612 263.491C68.792 263.318 68.882 263.094 68.882 262.821C68.882 262.541 68.792 262.321 68.612 262.161C68.4387 262.001 68.1754 261.921 67.822 261.921H66.252V263.741ZM74.2175 267.971C73.7775 267.971 73.3842 267.918 73.0375 267.811C72.6908 267.704 72.3975 267.554 72.1575 267.361C71.9242 267.168 71.7442 266.941 71.6175 266.681C71.4975 266.421 71.4375 266.131 71.4375 265.811C71.4375 265.424 71.5308 265.091 71.7175 264.811C71.9108 264.524 72.1608 264.304 72.4675 264.151C72.2208 263.998 72.0275 263.801 71.8875 263.561C71.7542 263.321 71.6875 263.041 71.6875 262.721C71.6875 262.334 71.7842 261.998 71.9775 261.711C72.1775 261.418 72.4642 261.188 72.8375 261.021C73.2175 260.854 73.6775 260.771 74.2175 260.771C74.7575 260.771 75.2142 260.854 75.5875 261.021C75.9608 261.181 76.2442 261.408 76.4375 261.701C76.6308 261.988 76.7275 262.324 76.7275 262.711C76.7275 263.031 76.6608 263.311 76.5275 263.551C76.3942 263.791 76.2075 263.991 75.9675 264.151C76.2808 264.298 76.5308 264.518 76.7175 264.811C76.9042 265.098 76.9975 265.434 76.9975 265.821C76.9975 266.241 76.8875 266.614 76.6675 266.941C76.4542 267.261 76.1375 267.514 75.7175 267.701C75.3042 267.881 74.8042 267.971 74.2175 267.971ZM74.2175 266.931C74.4775 266.931 74.7108 266.888 74.9175 266.801C75.1308 266.708 75.2975 266.578 75.4175 266.411C75.5442 266.244 75.6075 266.048 75.6075 265.821C75.6075 265.588 75.5442 265.391 75.4175 265.231C75.2975 265.064 75.1308 264.938 74.9175 264.851C74.7108 264.758 74.4775 264.711 74.2175 264.711C73.9575 264.711 73.7208 264.758 73.5075 264.851C73.3008 264.938 73.1342 265.064 73.0075 265.231C72.8875 265.391 72.8275 265.588 72.8275 265.821C72.8275 266.048 72.8875 266.244 73.0075 266.411C73.1342 266.578 73.3008 266.708 73.5075 266.801C73.7208 266.888 73.9575 266.931 74.2175 266.931ZM74.2175 263.721C74.4375 263.714 74.6375 263.671 74.8175 263.591C75.0042 263.511 75.1508 263.401 75.2575 263.261C75.3708 263.121 75.4275 262.958 75.4275 262.771C75.4275 262.578 75.3742 262.411 75.2675 262.271C75.1675 262.124 75.0242 262.011 74.8375 261.931C74.6575 261.851 74.4508 261.811 74.2175 261.811C73.9842 261.811 73.7742 261.851 73.5875 261.931C73.4075 262.011 73.2642 262.124 73.1575 262.271C73.0575 262.411 73.0075 262.578 73.0075 262.771C73.0075 262.964 73.0575 263.131 73.1575 263.271C73.2642 263.411 73.4075 263.521 73.5875 263.601C73.7742 263.681 73.9842 263.721 74.2175 263.721ZM78.52 267.871C78.4533 267.871 78.3967 267.848 78.35 267.801C78.3033 267.754 78.28 267.698 78.28 267.631V261.121C78.28 261.048 78.3033 260.988 78.35 260.941C78.3967 260.894 78.4533 260.871 78.52 260.871H81.42C81.96 260.871 82.4 260.954 82.74 261.121C83.08 261.281 83.33 261.504 83.49 261.791C83.6567 262.078 83.74 262.411 83.74 262.791C83.74 263.044 83.6933 263.268 83.6 263.461C83.5133 263.648 83.4033 263.801 83.27 263.921C83.1433 264.041 83.0167 264.134 82.89 264.201C83.15 264.321 83.38 264.521 83.58 264.801C83.78 265.081 83.88 265.414 83.88 265.801C83.88 266.201 83.79 266.558 83.61 266.871C83.43 267.184 83.1633 267.431 82.81 267.611C82.4567 267.784 82.02 267.871 81.5 267.871H78.52ZM79.67 266.811H81.34C81.7 266.811 81.9733 266.714 82.16 266.521C82.3467 266.321 82.44 266.081 82.44 265.801C82.44 265.508 82.3433 265.264 82.15 265.071C81.9633 264.878 81.6933 264.781 81.34 264.781H79.67V266.811ZM79.67 263.741H81.24C81.5933 263.741 81.8567 263.658 82.03 263.491C82.21 263.318 82.3 263.094 82.3 262.821C82.3 262.541 82.21 262.321 82.03 262.161C81.8567 262.001 81.5933 261.921 81.24 261.921H79.67V263.741ZM87.6355 267.971C87.1955 267.971 86.8021 267.918 86.4555 267.811C86.1088 267.704 85.8155 267.554 85.5755 267.361C85.3421 267.168 85.1621 266.941 85.0355 266.681C84.9155 266.421 84.8555 266.131 84.8555 265.811C84.8555 265.424 84.9488 265.091 85.1355 264.811C85.3288 264.524 85.5788 264.304 85.8855 264.151C85.6388 263.998 85.4455 263.801 85.3055 263.561C85.1721 263.321 85.1055 263.041 85.1055 262.721C85.1055 262.334 85.2021 261.998 85.3955 261.711C85.5955 261.418 85.8821 261.188 86.2555 261.021C86.6355 260.854 87.0955 260.771 87.6355 260.771C88.1755 260.771 88.6321 260.854 89.0055 261.021C89.3788 261.181 89.6621 261.408 89.8555 261.701C90.0488 261.988 90.1455 262.324 90.1455 262.711C90.1455 263.031 90.0788 263.311 89.9455 263.551C89.8121 263.791 89.6255 263.991 89.3855 264.151C89.6988 264.298 89.9488 264.518 90.1355 264.811C90.3221 265.098 90.4155 265.434 90.4155 265.821C90.4155 266.241 90.3055 266.614 90.0855 266.941C89.8721 267.261 89.5555 267.514 89.1355 267.701C88.7221 267.881 88.2221 267.971 87.6355 267.971ZM87.6355 266.931C87.8955 266.931 88.1288 266.888 88.3355 266.801C88.5488 266.708 88.7155 266.578 88.8355 266.411C88.9621 266.244 89.0255 266.048 89.0255 265.821C89.0255 265.588 88.9621 265.391 88.8355 265.231C88.7155 265.064 88.5488 264.938 88.3355 264.851C88.1288 264.758 87.8955 264.711 87.6355 264.711C87.3755 264.711 87.1388 264.758 86.9255 264.851C86.7188 264.938 86.5521 265.064 86.4255 265.231C86.3055 265.391 86.2455 265.588 86.2455 265.821C86.2455 266.048 86.3055 266.244 86.4255 266.411C86.5521 266.578 86.7188 266.708 86.9255 266.801C87.1388 266.888 87.3755 266.931 87.6355 266.931ZM87.6355 263.721C87.8555 263.714 88.0555 263.671 88.2355 263.591C88.4221 263.511 88.5688 263.401 88.6755 263.261C88.7888 263.121 88.8455 262.958 88.8455 262.771C88.8455 262.578 88.7921 262.411 88.6855 262.271C88.5855 262.124 88.4421 262.011 88.2555 261.931C88.0755 261.851 87.8688 261.811 87.6355 261.811C87.4021 261.811 87.1921 261.851 87.0055 261.931C86.8255 262.011 86.6821 262.124 86.5755 262.271C86.4755 262.411 86.4255 262.578 86.4255 262.771C86.4255 262.964 86.4755 263.131 86.5755 263.271C86.6821 263.411 86.8255 263.521 87.0055 263.601C87.1921 263.681 87.4021 263.721 87.6355 263.721Z" fill="#1F1F1F"/>
<rect x="115.5" y="34.8711" width="73.5" height="255" rx="24" fill="#52675E"/>
<path d="M131.85 267.481C131.79 267.481 131.737 267.461 131.69 267.421C131.65 267.381 131.633 267.331 131.64 267.271L131.8 266.181H130.95C130.883 266.181 130.827 266.161 130.78 266.121C130.74 266.074 130.72 266.018 130.72 265.951V265.391C130.72 265.318 130.74 265.261 130.78 265.221C130.827 265.181 130.883 265.161 130.95 265.161H131.95L132.18 263.641H131.21C131.143 263.641 131.087 263.621 131.04 263.581C131 263.534 130.98 263.478 130.98 263.411V262.851C130.98 262.778 131 262.721 131.04 262.681C131.087 262.641 131.143 262.621 131.21 262.621H132.33L132.5 261.531C132.513 261.478 132.537 261.431 132.57 261.391C132.61 261.344 132.663 261.321 132.73 261.321H133.31C133.37 261.321 133.42 261.341 133.46 261.381C133.5 261.421 133.517 261.471 133.51 261.531L133.35 262.621H134.6L134.77 261.531C134.783 261.478 134.807 261.431 134.84 261.391C134.88 261.344 134.933 261.321 135 261.321H135.58C135.64 261.321 135.69 261.341 135.73 261.381C135.77 261.421 135.787 261.471 135.78 261.531L135.62 262.621H136.46C136.527 262.621 136.58 262.641 136.62 262.681C136.667 262.721 136.69 262.778 136.69 262.851V263.411C136.69 263.478 136.667 263.534 136.62 263.581C136.58 263.621 136.527 263.641 136.46 263.641H135.47L135.25 265.161H136.2C136.267 265.161 136.32 265.181 136.36 265.221C136.407 265.261 136.43 265.318 136.43 265.391V265.951C136.43 266.018 136.407 266.074 136.36 266.121C136.32 266.161 136.267 266.181 136.2 266.181H135.09L134.93 267.271C134.91 267.411 134.833 267.481 134.7 267.481H134.12C134.06 267.481 134.007 267.461 133.96 267.421C133.92 267.381 133.903 267.331 133.91 267.271L134.07 266.181H132.82L132.66 267.271C132.64 267.411 132.563 267.481 132.43 267.481H131.85ZM132.98 265.161H134.22L134.45 263.641H133.2L132.98 265.161ZM140.224 267.981C139.651 267.981 139.167 267.888 138.774 267.701C138.381 267.508 138.081 267.258 137.874 266.951C137.674 266.644 137.567 266.318 137.554 265.971C137.547 265.911 137.564 265.864 137.604 265.831C137.651 265.791 137.704 265.771 137.764 265.771H138.694C138.767 265.771 138.827 265.788 138.874 265.821C138.927 265.848 138.967 265.898 138.994 265.971C139.061 266.171 139.154 266.334 139.274 266.461C139.401 266.588 139.544 266.681 139.704 266.741C139.871 266.801 140.044 266.831 140.224 266.831C140.464 266.831 140.681 266.784 140.874 266.691C141.074 266.591 141.234 266.444 141.354 266.251C141.474 266.058 141.534 265.821 141.534 265.541C141.534 265.294 141.477 265.081 141.364 264.901C141.251 264.721 141.094 264.581 140.894 264.481C140.701 264.374 140.477 264.321 140.224 264.321C140.037 264.321 139.884 264.344 139.764 264.391C139.644 264.438 139.541 264.491 139.454 264.551C139.374 264.611 139.301 264.664 139.234 264.711C139.174 264.758 139.104 264.781 139.024 264.781H138.104C138.044 264.781 137.991 264.761 137.944 264.721C137.904 264.674 137.884 264.621 137.884 264.561L138.234 261.141C138.241 261.054 138.271 260.988 138.324 260.941C138.377 260.894 138.441 260.871 138.514 260.871H142.274C142.341 260.871 142.397 260.894 142.444 260.941C142.491 260.988 142.514 261.044 142.514 261.111V261.781C142.514 261.848 142.491 261.904 142.444 261.951C142.397 261.998 142.341 262.021 142.274 262.021H139.384L139.224 263.651C139.344 263.571 139.504 263.494 139.704 263.421C139.904 263.348 140.181 263.311 140.534 263.311C140.854 263.311 141.157 263.364 141.444 263.471C141.737 263.571 141.997 263.721 142.224 263.921C142.451 264.114 142.627 264.351 142.754 264.631C142.887 264.904 142.954 265.218 142.954 265.571C142.954 266.058 142.841 266.481 142.614 266.841C142.387 267.201 142.071 267.481 141.664 267.681C141.257 267.881 140.777 267.981 140.224 267.981ZM144.055 267.871C143.989 267.871 143.932 267.848 143.885 267.801C143.839 267.754 143.815 267.698 143.815 267.631V267.121C143.815 267.061 143.829 266.991 143.855 266.911C143.889 266.824 143.959 266.738 144.065 266.651L145.645 265.081C146.085 264.734 146.439 264.441 146.705 264.201C146.979 263.954 147.175 263.731 147.295 263.531C147.422 263.324 147.485 263.121 147.485 262.921C147.485 262.621 147.402 262.378 147.235 262.191C147.075 262.004 146.819 261.911 146.465 261.911C146.232 261.911 146.035 261.961 145.875 262.061C145.715 262.154 145.589 262.281 145.495 262.441C145.409 262.601 145.349 262.778 145.315 262.971C145.302 263.058 145.265 263.118 145.205 263.151C145.145 263.184 145.085 263.201 145.025 263.201H144.135C144.075 263.201 144.025 263.181 143.985 263.141C143.945 263.101 143.925 263.054 143.925 263.001C143.932 262.714 143.992 262.438 144.105 262.171C144.219 261.898 144.382 261.658 144.595 261.451C144.815 261.238 145.082 261.068 145.395 260.941C145.709 260.814 146.062 260.751 146.455 260.751C147.009 260.751 147.465 260.844 147.825 261.031C148.192 261.218 148.465 261.471 148.645 261.791C148.832 262.111 148.925 262.471 148.925 262.871C148.925 263.184 148.865 263.474 148.745 263.741C148.625 264.001 148.452 264.254 148.225 264.501C147.999 264.741 147.725 264.988 147.405 265.241L145.985 266.681H148.835C148.909 266.681 148.965 266.704 149.005 266.751C149.052 266.791 149.075 266.848 149.075 266.921V267.631C149.075 267.698 149.052 267.754 149.005 267.801C148.965 267.848 148.909 267.871 148.835 267.871H144.055ZM152.747 267.971C152.173 267.971 151.68 267.864 151.267 267.651C150.853 267.431 150.533 267.138 150.307 266.771C150.08 266.398 149.967 265.981 149.967 265.521C149.967 265.314 149.993 265.114 150.047 264.921C150.1 264.728 150.17 264.544 150.257 264.371C150.343 264.198 150.427 264.044 150.507 263.911C150.593 263.771 150.67 263.661 150.737 263.581L152.567 261.071C152.593 261.038 152.633 260.998 152.687 260.951C152.74 260.898 152.813 260.871 152.907 260.871H153.837C153.897 260.871 153.947 260.894 153.987 260.941C154.027 260.981 154.047 261.031 154.047 261.091C154.047 261.118 154.04 261.144 154.027 261.171C154.02 261.191 154.01 261.208 153.997 261.221L152.597 263.161C152.657 263.141 152.727 263.128 152.807 263.121C152.887 263.114 152.96 263.111 153.027 263.111C153.36 263.118 153.677 263.184 153.977 263.311C154.277 263.431 154.54 263.598 154.767 263.811C154.993 264.024 155.17 264.274 155.297 264.561C155.43 264.848 155.497 265.161 155.497 265.501C155.497 265.941 155.387 266.351 155.167 266.731C154.947 267.104 154.63 267.404 154.217 267.631C153.81 267.858 153.32 267.971 152.747 267.971ZM152.737 266.821C152.977 266.821 153.197 266.771 153.397 266.671C153.603 266.571 153.77 266.424 153.897 266.231C154.023 266.038 154.087 265.798 154.087 265.511C154.087 265.231 154.023 264.994 153.897 264.801C153.77 264.608 153.603 264.461 153.397 264.361C153.197 264.261 152.977 264.211 152.737 264.211C152.497 264.211 152.273 264.261 152.067 264.361C151.867 264.461 151.703 264.608 151.577 264.801C151.45 264.994 151.387 265.231 151.387 265.511C151.387 265.798 151.45 266.038 151.577 266.231C151.703 266.424 151.867 266.571 152.067 266.671C152.273 266.771 152.497 266.821 152.737 266.821ZM156.954 267.871C156.894 267.871 156.844 267.851 156.804 267.811C156.764 267.764 156.744 267.711 156.744 267.651C156.744 267.624 156.751 267.594 156.764 267.561L159.174 262.061H156.034C155.961 262.061 155.901 262.038 155.854 261.991C155.814 261.944 155.794 261.888 155.794 261.821V261.121C155.794 261.048 155.814 260.988 155.854 260.941C155.901 260.894 155.961 260.871 156.034 260.871H160.424C160.497 260.871 160.554 260.894 160.594 260.941C160.641 260.988 160.664 261.048 160.664 261.121V261.741C160.664 261.834 160.654 261.914 160.634 261.981C160.621 262.041 160.601 262.104 160.574 262.171L158.184 267.631C158.164 267.678 158.127 267.731 158.074 267.791C158.027 267.844 157.957 267.871 157.864 267.871H156.954ZM163.994 267.981C163.42 267.981 162.937 267.888 162.544 267.701C162.15 267.508 161.85 267.258 161.644 266.951C161.444 266.644 161.337 266.318 161.324 265.971C161.317 265.911 161.334 265.864 161.374 265.831C161.42 265.791 161.474 265.771 161.534 265.771H162.464C162.537 265.771 162.597 265.788 162.644 265.821C162.697 265.848 162.737 265.898 162.764 265.971C162.83 266.171 162.924 266.334 163.044 266.461C163.17 266.588 163.314 266.681 163.474 266.741C163.64 266.801 163.814 266.831 163.994 266.831C164.234 266.831 164.45 266.784 164.644 266.691C164.844 266.591 165.004 266.444 165.124 266.251C165.244 266.058 165.304 265.821 165.304 265.541C165.304 265.294 165.247 265.081 165.134 264.901C165.02 264.721 164.864 264.581 164.664 264.481C164.47 264.374 164.247 264.321 163.994 264.321C163.807 264.321 163.654 264.344 163.534 264.391C163.414 264.438 163.31 264.491 163.224 264.551C163.144 264.611 163.07 264.664 163.004 264.711C162.944 264.758 162.874 264.781 162.794 264.781H161.874C161.814 264.781 161.76 264.761 161.714 264.721C161.674 264.674 161.654 264.621 161.654 264.561L162.004 261.141C162.01 261.054 162.04 260.988 162.094 260.941C162.147 260.894 162.21 260.871 162.284 260.871H166.044C166.11 260.871 166.167 260.894 166.214 260.941C166.26 260.988 166.284 261.044 166.284 261.111V261.781C166.284 261.848 166.26 261.904 166.214 261.951C166.167 261.998 166.11 262.021 166.044 262.021H163.154L162.994 263.651C163.114 263.571 163.274 263.494 163.474 263.421C163.674 263.348 163.95 263.311 164.304 263.311C164.624 263.311 164.927 263.364 165.214 263.471C165.507 263.571 165.767 263.721 165.994 263.921C166.22 264.114 166.397 264.351 166.524 264.631C166.657 264.904 166.724 265.218 166.724 265.571C166.724 266.058 166.61 266.481 166.384 266.841C166.157 267.201 165.84 267.481 165.434 267.681C165.027 267.881 164.547 267.981 163.994 267.981ZM168.155 267.871C168.088 267.871 168.031 267.848 167.985 267.801C167.938 267.754 167.915 267.698 167.915 267.631V261.121C167.915 261.048 167.938 260.988 167.985 260.941C168.031 260.894 168.088 260.871 168.155 260.871H172.555C172.628 260.871 172.688 260.894 172.735 260.941C172.781 260.988 172.805 261.048 172.805 261.121V261.781C172.805 261.848 172.781 261.904 172.735 261.951C172.688 261.998 172.628 262.021 172.555 262.021H169.265V263.791H172.335C172.408 263.791 172.468 263.814 172.515 263.861C172.561 263.901 172.585 263.958 172.585 264.031V264.651C172.585 264.724 172.561 264.784 172.515 264.831C172.468 264.871 172.408 264.891 172.335 264.891H169.265V266.721H172.635C172.708 266.721 172.768 266.744 172.815 266.791C172.861 266.838 172.885 266.898 172.885 266.971V267.631C172.885 267.698 172.861 267.754 172.815 267.801C172.768 267.848 172.708 267.871 172.635 267.871H168.155Z" fill="#1F1F1F"/>
<rect x="200" y="34.8711" width="73.5" height="255" rx="24" fill="#08C16A"/>
<path d="M215.85 267.481C215.79 267.481 215.737 267.461 215.69 267.421C215.65 267.381 215.633 267.331 215.64 267.271L215.8 266.181H214.95C214.883 266.181 214.827 266.161 214.78 266.121C214.74 266.074 214.72 266.018 214.72 265.951V265.391C214.72 265.318 214.74 265.261 214.78 265.221C214.827 265.181 214.883 265.161 214.95 265.161H215.95L216.18 263.641H215.21C215.143 263.641 215.087 263.621 215.04 263.581C215 263.534 214.98 263.478 214.98 263.411V262.851C214.98 262.778 215 262.721 215.04 262.681C215.087 262.641 215.143 262.621 215.21 262.621H216.33L216.5 261.531C216.513 261.478 216.537 261.431 216.57 261.391C216.61 261.344 216.663 261.321 216.73 261.321H217.31C217.37 261.321 217.42 261.341 217.46 261.381C217.5 261.421 217.517 261.471 217.51 261.531L217.35 262.621H218.6L218.77 261.531C218.783 261.478 218.807 261.431 218.84 261.391C218.88 261.344 218.933 261.321 219 261.321H219.58C219.64 261.321 219.69 261.341 219.73 261.381C219.77 261.421 219.787 261.471 219.78 261.531L219.62 262.621H220.46C220.527 262.621 220.58 262.641 220.62 262.681C220.667 262.721 220.69 262.778 220.69 262.851V263.411C220.69 263.478 220.667 263.534 220.62 263.581C220.58 263.621 220.527 263.641 220.46 263.641H219.47L219.25 265.161H220.2C220.267 265.161 220.32 265.181 220.36 265.221C220.407 265.261 220.43 265.318 220.43 265.391V265.951C220.43 266.018 220.407 266.074 220.36 266.121C220.32 266.161 220.267 266.181 220.2 266.181H219.09L218.93 267.271C218.91 267.411 218.833 267.481 218.7 267.481H218.12C218.06 267.481 218.007 267.461 217.96 267.421C217.92 267.381 217.903 267.331 217.91 267.271L218.07 266.181H216.82L216.66 267.271C216.64 267.411 216.563 267.481 216.43 267.481H215.85ZM216.98 265.161H218.22L218.45 263.641H217.2L216.98 265.161ZM224.444 267.971C223.971 267.971 223.567 267.901 223.234 267.761C222.901 267.621 222.627 267.428 222.414 267.181C222.201 266.934 222.041 266.651 221.934 266.331C221.827 266.004 221.764 265.658 221.744 265.291C221.737 265.111 221.731 264.914 221.724 264.701C221.724 264.481 221.724 264.261 221.724 264.041C221.731 263.821 221.737 263.618 221.744 263.431C221.757 263.064 221.821 262.721 221.934 262.401C222.047 262.074 222.211 261.791 222.424 261.551C222.644 261.311 222.921 261.121 223.254 260.981C223.587 260.841 223.984 260.771 224.444 260.771C224.911 260.771 225.311 260.841 225.644 260.981C225.977 261.121 226.251 261.311 226.464 261.551C226.684 261.791 226.847 262.074 226.954 262.401C227.067 262.721 227.131 263.064 227.144 263.431C227.157 263.618 227.164 263.821 227.164 264.041C227.164 264.261 227.164 264.481 227.164 264.701C227.164 264.914 227.157 265.111 227.144 265.291C227.131 265.658 227.071 266.004 226.964 266.331C226.857 266.651 226.697 266.934 226.484 267.181C226.271 267.428 225.994 267.621 225.654 267.761C225.321 267.901 224.917 267.971 224.444 267.971ZM224.444 266.821C224.877 266.821 225.194 266.681 225.394 266.401C225.601 266.114 225.707 265.728 225.714 265.241C225.727 265.048 225.734 264.854 225.734 264.661C225.734 264.461 225.734 264.261 225.734 264.061C225.734 263.861 225.727 263.671 225.714 263.491C225.707 263.018 225.601 262.638 225.394 262.351C225.194 262.058 224.877 261.911 224.444 261.911C224.017 261.911 223.701 262.058 223.494 262.351C223.294 262.638 223.187 263.018 223.174 263.491C223.174 263.671 223.171 263.861 223.164 264.061C223.164 264.261 223.164 264.461 223.164 264.661C223.171 264.854 223.174 265.048 223.174 265.241C223.187 265.728 223.297 266.114 223.504 266.401C223.711 266.681 224.024 266.821 224.444 266.821ZM231.016 267.971C230.576 267.971 230.183 267.918 229.836 267.811C229.49 267.704 229.196 267.554 228.956 267.361C228.723 267.168 228.543 266.941 228.416 266.681C228.296 266.421 228.236 266.131 228.236 265.811C228.236 265.424 228.33 265.091 228.516 264.811C228.71 264.524 228.96 264.304 229.266 264.151C229.02 263.998 228.826 263.801 228.686 263.561C228.553 263.321 228.486 263.041 228.486 262.721C228.486 262.334 228.583 261.998 228.776 261.711C228.976 261.418 229.263 261.188 229.636 261.021C230.016 260.854 230.476 260.771 231.016 260.771C231.556 260.771 232.013 260.854 232.386 261.021C232.76 261.181 233.043 261.408 233.236 261.701C233.43 261.988 233.526 262.324 233.526 262.711C233.526 263.031 233.46 263.311 233.326 263.551C233.193 263.791 233.006 263.991 232.766 264.151C233.08 264.298 233.33 264.518 233.516 264.811C233.703 265.098 233.796 265.434 233.796 265.821C233.796 266.241 233.686 266.614 233.466 266.941C233.253 267.261 232.936 267.514 232.516 267.701C232.103 267.881 231.603 267.971 231.016 267.971ZM231.016 266.931C231.276 266.931 231.51 266.888 231.716 266.801C231.93 266.708 232.096 266.578 232.216 266.411C232.343 266.244 232.406 266.048 232.406 265.821C232.406 265.588 232.343 265.391 232.216 265.231C232.096 265.064 231.93 264.938 231.716 264.851C231.51 264.758 231.276 264.711 231.016 264.711C230.756 264.711 230.52 264.758 230.306 264.851C230.1 264.938 229.933 265.064 229.806 265.231C229.686 265.391 229.626 265.588 229.626 265.821C229.626 266.048 229.686 266.244 229.806 266.411C229.933 266.578 230.1 266.708 230.306 266.801C230.52 266.888 230.756 266.931 231.016 266.931ZM231.016 263.721C231.236 263.714 231.436 263.671 231.616 263.591C231.803 263.511 231.95 263.401 232.056 263.261C232.17 263.121 232.226 262.958 232.226 262.771C232.226 262.578 232.173 262.411 232.066 262.271C231.966 262.124 231.823 262.011 231.636 261.931C231.456 261.851 231.25 261.811 231.016 261.811C230.783 261.811 230.573 261.851 230.386 261.931C230.206 262.011 230.063 262.124 229.956 262.271C229.856 262.411 229.806 262.578 229.806 262.771C229.806 262.964 229.856 263.131 229.956 263.271C230.063 263.411 230.206 263.521 230.386 263.601C230.573 263.681 230.783 263.721 231.016 263.721ZM237.779 267.971C237.159 267.971 236.632 267.864 236.199 267.651C235.772 267.431 235.445 267.121 235.219 266.721C234.992 266.314 234.865 265.828 234.839 265.261C234.832 264.988 234.829 264.694 234.829 264.381C234.829 264.068 234.832 263.768 234.839 263.481C234.865 262.921 234.992 262.438 235.219 262.031C235.452 261.624 235.782 261.314 236.209 261.101C236.642 260.881 237.165 260.771 237.779 260.771C238.232 260.771 238.639 260.831 238.999 260.951C239.359 261.071 239.665 261.238 239.919 261.451C240.172 261.658 240.369 261.901 240.509 262.181C240.649 262.461 240.722 262.764 240.729 263.091C240.735 263.151 240.715 263.201 240.669 263.241C240.629 263.281 240.579 263.301 240.519 263.301H239.569C239.495 263.301 239.435 263.284 239.389 263.251C239.342 263.211 239.309 263.148 239.289 263.061C239.182 262.621 238.999 262.321 238.739 262.161C238.479 262.001 238.155 261.921 237.769 261.921C237.322 261.921 236.965 262.048 236.699 262.301C236.432 262.548 236.289 262.958 236.269 263.531C236.249 264.078 236.249 264.638 236.269 265.211C236.289 265.784 236.432 266.198 236.699 266.451C236.965 266.698 237.322 266.821 237.769 266.821C238.155 266.821 238.479 266.741 238.739 266.581C239.005 266.414 239.189 266.114 239.289 265.681C239.309 265.588 239.342 265.524 239.389 265.491C239.435 265.458 239.495 265.441 239.569 265.441H240.519C240.579 265.441 240.629 265.461 240.669 265.501C240.715 265.541 240.735 265.591 240.729 265.651C240.722 265.978 240.649 266.281 240.509 266.561C240.369 266.841 240.172 267.088 239.919 267.301C239.665 267.508 239.359 267.671 238.999 267.791C238.639 267.911 238.232 267.971 237.779 267.971ZM243.905 267.871C243.831 267.871 243.771 267.848 243.725 267.801C243.685 267.754 243.665 267.698 243.665 267.631V262.451L242.145 263.621C242.085 263.661 242.025 263.678 241.965 263.671C241.905 263.658 241.851 263.621 241.805 263.561L241.385 263.021C241.345 262.961 241.328 262.898 241.335 262.831C241.348 262.764 241.385 262.711 241.445 262.671L243.685 260.941C243.725 260.908 243.765 260.888 243.805 260.881C243.845 260.874 243.888 260.871 243.935 260.871H244.815C244.881 260.871 244.938 260.894 244.985 260.941C245.031 260.988 245.055 261.044 245.055 261.111V267.631C245.055 267.698 245.031 267.754 244.985 267.801C244.938 267.848 244.881 267.871 244.815 267.871H243.905ZM248.954 267.971C248.38 267.971 247.887 267.864 247.474 267.651C247.06 267.431 246.74 267.138 246.514 266.771C246.287 266.398 246.174 265.981 246.174 265.521C246.174 265.314 246.2 265.114 246.254 264.921C246.307 264.728 246.377 264.544 246.464 264.371C246.55 264.198 246.634 264.044 246.714 263.911C246.8 263.771 246.877 263.661 246.944 263.581L248.774 261.071C248.8 261.038 248.84 260.998 248.894 260.951C248.947 260.898 249.02 260.871 249.114 260.871H250.044C250.104 260.871 250.154 260.894 250.194 260.941C250.234 260.981 250.254 261.031 250.254 261.091C250.254 261.118 250.247 261.144 250.234 261.171C250.227 261.191 250.217 261.208 250.204 261.221L248.804 263.161C248.864 263.141 248.934 263.128 249.014 263.121C249.094 263.114 249.167 263.111 249.234 263.111C249.567 263.118 249.884 263.184 250.184 263.311C250.484 263.431 250.747 263.598 250.974 263.811C251.2 264.024 251.377 264.274 251.504 264.561C251.637 264.848 251.704 265.161 251.704 265.501C251.704 265.941 251.594 266.351 251.374 266.731C251.154 267.104 250.837 267.404 250.424 267.631C250.017 267.858 249.527 267.971 248.954 267.971ZM248.944 266.821C249.184 266.821 249.404 266.771 249.604 266.671C249.81 266.571 249.977 266.424 250.104 266.231C250.23 266.038 250.294 265.798 250.294 265.511C250.294 265.231 250.23 264.994 250.104 264.801C249.977 264.608 249.81 264.461 249.604 264.361C249.404 264.261 249.184 264.211 248.944 264.211C248.704 264.211 248.48 264.261 248.274 264.361C248.074 264.461 247.91 264.608 247.784 264.801C247.657 264.994 247.594 265.231 247.594 265.511C247.594 265.798 247.657 266.038 247.784 266.231C247.91 266.424 248.074 266.571 248.274 266.671C248.48 266.771 248.704 266.821 248.944 266.821ZM252.383 267.871C252.33 267.871 252.28 267.851 252.233 267.811C252.193 267.771 252.173 267.721 252.173 267.661C252.173 267.634 252.18 267.604 252.193 267.571L254.603 261.121C254.623 261.054 254.66 260.998 254.713 260.951C254.773 260.898 254.853 260.871 254.953 260.871H256.043C256.143 260.871 256.22 260.898 256.273 260.951C256.327 260.998 256.367 261.054 256.393 261.121L258.803 267.571C258.81 267.604 258.813 267.634 258.813 267.661C258.813 267.721 258.793 267.771 258.753 267.811C258.713 267.851 258.667 267.871 258.613 267.871H257.743C257.65 267.871 257.58 267.851 257.533 267.811C257.493 267.764 257.467 267.721 257.453 267.681L256.983 266.461H254.013L253.543 267.681C253.53 267.721 253.5 267.764 253.453 267.811C253.413 267.851 253.347 267.871 253.253 267.871H252.383ZM254.363 265.311H256.633L255.493 262.221L254.363 265.311Z" fill="#1F1F1F"/>
<rect x="284.5" y="34.8711" width="73.5" height="255" rx="24" fill="#844AE3"/>
<path d="M299.85 267.481C299.79 267.481 299.737 267.461 299.69 267.421C299.65 267.381 299.633 267.331 299.64 267.271L299.8 266.181H298.95C298.883 266.181 298.827 266.161 298.78 266.121C298.74 266.074 298.72 266.018 298.72 265.951V265.391C298.72 265.318 298.74 265.261 298.78 265.221C298.827 265.181 298.883 265.161 298.95 265.161H299.95L300.18 263.641H299.21C299.143 263.641 299.087 263.621 299.04 263.581C299 263.534 298.98 263.478 298.98 263.411V262.851C298.98 262.778 299 262.721 299.04 262.681C299.087 262.641 299.143 262.621 299.21 262.621H300.33L300.5 261.531C300.513 261.478 300.537 261.431 300.57 261.391C300.61 261.344 300.663 261.321 300.73 261.321H301.31C301.37 261.321 301.42 261.341 301.46 261.381C301.5 261.421 301.517 261.471 301.51 261.531L301.35 262.621H302.6L302.77 261.531C302.783 261.478 302.807 261.431 302.84 261.391C302.88 261.344 302.933 261.321 303 261.321H303.58C303.64 261.321 303.69 261.341 303.73 261.381C303.77 261.421 303.787 261.471 303.78 261.531L303.62 262.621H304.46C304.527 262.621 304.58 262.641 304.62 262.681C304.667 262.721 304.69 262.778 304.69 262.851V263.411C304.69 263.478 304.667 263.534 304.62 263.581C304.58 263.621 304.527 263.641 304.46 263.641H303.47L303.25 265.161H304.2C304.267 265.161 304.32 265.181 304.36 265.221C304.407 265.261 304.43 265.318 304.43 265.391V265.951C304.43 266.018 304.407 266.074 304.36 266.121C304.32 266.161 304.267 266.181 304.2 266.181H303.09L302.93 267.271C302.91 267.411 302.833 267.481 302.7 267.481H302.12C302.06 267.481 302.007 267.461 301.96 267.421C301.92 267.381 301.903 267.331 301.91 267.271L302.07 266.181H300.82L300.66 267.271C300.64 267.411 300.563 267.481 300.43 267.481H299.85ZM300.98 265.161H302.22L302.45 263.641H301.2L300.98 265.161ZM308.444 267.971C308.004 267.971 307.611 267.918 307.264 267.811C306.917 267.704 306.624 267.554 306.384 267.361C306.151 267.168 305.971 266.941 305.844 266.681C305.724 266.421 305.664 266.131 305.664 265.811C305.664 265.424 305.757 265.091 305.944 264.811C306.137 264.524 306.387 264.304 306.694 264.151C306.447 263.998 306.254 263.801 306.114 263.561C305.981 263.321 305.914 263.041 305.914 262.721C305.914 262.334 306.011 261.998 306.204 261.711C306.404 261.418 306.691 261.188 307.064 261.021C307.444 260.854 307.904 260.771 308.444 260.771C308.984 260.771 309.441 260.854 309.814 261.021C310.187 261.181 310.471 261.408 310.664 261.701C310.857 261.988 310.954 262.324 310.954 262.711C310.954 263.031 310.887 263.311 310.754 263.551C310.621 263.791 310.434 263.991 310.194 264.151C310.507 264.298 310.757 264.518 310.944 264.811C311.131 265.098 311.224 265.434 311.224 265.821C311.224 266.241 311.114 266.614 310.894 266.941C310.681 267.261 310.364 267.514 309.944 267.701C309.531 267.881 309.031 267.971 308.444 267.971ZM308.444 266.931C308.704 266.931 308.937 266.888 309.144 266.801C309.357 266.708 309.524 266.578 309.644 266.411C309.771 266.244 309.834 266.048 309.834 265.821C309.834 265.588 309.771 265.391 309.644 265.231C309.524 265.064 309.357 264.938 309.144 264.851C308.937 264.758 308.704 264.711 308.444 264.711C308.184 264.711 307.947 264.758 307.734 264.851C307.527 264.938 307.361 265.064 307.234 265.231C307.114 265.391 307.054 265.588 307.054 265.821C307.054 266.048 307.114 266.244 307.234 266.411C307.361 266.578 307.527 266.708 307.734 266.801C307.947 266.888 308.184 266.931 308.444 266.931ZM308.444 263.721C308.664 263.714 308.864 263.671 309.044 263.591C309.231 263.511 309.377 263.401 309.484 263.261C309.597 263.121 309.654 262.958 309.654 262.771C309.654 262.578 309.601 262.411 309.494 262.271C309.394 262.124 309.251 262.011 309.064 261.931C308.884 261.851 308.677 261.811 308.444 261.811C308.211 261.811 308.001 261.851 307.814 261.931C307.634 262.011 307.491 262.124 307.384 262.271C307.284 262.411 307.234 262.578 307.234 262.771C307.234 262.964 307.284 263.131 307.384 263.271C307.491 263.411 307.634 263.521 307.814 263.601C308.001 263.681 308.211 263.721 308.444 263.721ZM315.677 267.871C315.61 267.871 315.553 267.848 315.507 267.801C315.46 267.754 315.437 267.698 315.437 267.631V266.351H312.267C312.193 266.351 312.133 266.328 312.087 266.281C312.047 266.234 312.027 266.178 312.027 266.111V265.431C312.027 265.391 312.033 265.344 312.047 265.291C312.067 265.231 312.097 265.178 312.137 265.131L315.087 261.041C315.173 260.928 315.297 260.871 315.457 260.871H316.547C316.613 260.871 316.67 260.894 316.717 260.941C316.763 260.988 316.787 261.044 316.787 261.111V265.171H317.677C317.757 265.171 317.817 265.194 317.857 265.241C317.903 265.281 317.927 265.338 317.927 265.411V266.111C317.927 266.178 317.903 266.234 317.857 266.281C317.81 266.328 317.753 266.351 317.687 266.351H316.787V267.631C316.787 267.698 316.763 267.754 316.717 267.801C316.67 267.848 316.613 267.871 316.547 267.871H315.677ZM313.417 265.211H315.467V262.321L313.417 265.211ZM322.2 267.871C322.133 267.871 322.077 267.848 322.03 267.801C321.983 267.754 321.96 267.698 321.96 267.631V266.351H318.79C318.717 266.351 318.657 266.328 318.61 266.281C318.57 266.234 318.55 266.178 318.55 266.111V265.431C318.55 265.391 318.557 265.344 318.57 265.291C318.59 265.231 318.62 265.178 318.66 265.131L321.61 261.041C321.697 260.928 321.82 260.871 321.98 260.871H323.07C323.137 260.871 323.193 260.894 323.24 260.941C323.287 260.988 323.31 261.044 323.31 261.111V265.171H324.2C324.28 265.171 324.34 265.194 324.38 265.241C324.427 265.281 324.45 265.338 324.45 265.411V266.111C324.45 266.178 324.427 266.234 324.38 266.281C324.333 266.328 324.277 266.351 324.21 266.351H323.31V267.631C323.31 267.698 323.287 267.754 323.24 267.801C323.193 267.848 323.137 267.871 323.07 267.871H322.2ZM319.94 265.211H321.99V262.321L319.94 265.211ZM325.123 267.871C325.07 267.871 325.02 267.851 324.973 267.811C324.933 267.771 324.913 267.721 324.913 267.661C324.913 267.634 324.92 267.604 324.933 267.571L327.343 261.121C327.363 261.054 327.4 260.998 327.453 260.951C327.513 260.898 327.593 260.871 327.693 260.871H328.783C328.883 260.871 328.96 260.898 329.013 260.951C329.067 260.998 329.107 261.054 329.133 261.121L331.543 267.571C331.55 267.604 331.553 267.634 331.553 267.661C331.553 267.721 331.533 267.771 331.493 267.811C331.453 267.851 331.407 267.871 331.353 267.871H330.483C330.39 267.871 330.32 267.851 330.273 267.811C330.233 267.764 330.207 267.721 330.193 267.681L329.723 266.461H326.753L326.283 267.681C326.27 267.721 326.24 267.764 326.193 267.811C326.153 267.851 326.087 267.871 325.993 267.871H325.123ZM327.103 265.311H329.373L328.233 262.221L327.103 265.311ZM332.727 267.871C332.66 267.871 332.604 267.848 332.557 267.801C332.51 267.754 332.487 267.698 332.487 267.631V261.121C332.487 261.048 332.51 260.988 332.557 260.941C332.604 260.894 332.66 260.871 332.727 260.871H337.127C337.2 260.871 337.26 260.894 337.307 260.941C337.354 260.988 337.377 261.048 337.377 261.121V261.781C337.377 261.848 337.354 261.904 337.307 261.951C337.26 261.998 337.2 262.021 337.127 262.021H333.837V263.791H336.907C336.98 263.791 337.04 263.814 337.087 263.861C337.134 263.901 337.157 263.958 337.157 264.031V264.651C337.157 264.724 337.134 264.784 337.087 264.831C337.04 264.871 336.98 264.891 336.907 264.891H333.837V266.721H337.207C337.28 266.721 337.34 266.744 337.387 266.791C337.434 266.838 337.457 266.898 337.457 266.971V267.631C337.457 267.698 337.434 267.754 337.387 267.801C337.34 267.848 337.28 267.871 337.207 267.871H332.727ZM341.038 267.971C340.571 267.971 340.168 267.914 339.828 267.801C339.488 267.688 339.204 267.541 338.978 267.361C338.758 267.174 338.591 266.974 338.478 266.761C338.364 266.541 338.304 266.324 338.298 266.111C338.298 266.051 338.318 266.004 338.358 265.971C338.404 265.931 338.458 265.911 338.518 265.911H339.418C339.484 265.911 339.541 265.924 339.588 265.951C339.634 265.978 339.674 266.031 339.708 266.111C339.768 266.291 339.864 266.434 339.998 266.541C340.138 266.648 340.298 266.724 340.478 266.771C340.658 266.811 340.848 266.831 341.048 266.831C341.448 266.831 341.764 266.738 341.998 266.551C342.238 266.358 342.358 266.084 342.358 265.731C342.358 265.378 342.248 265.124 342.028 264.971C341.808 264.811 341.501 264.731 341.108 264.731H340.078C340.004 264.731 339.944 264.711 339.898 264.671C339.851 264.624 339.828 264.564 339.828 264.491V264.071C339.828 264.004 339.841 263.948 339.868 263.901C339.901 263.848 339.934 263.804 339.968 263.771L341.758 262.021H338.898C338.824 262.021 338.764 261.998 338.718 261.951C338.678 261.904 338.658 261.848 338.658 261.781V261.121C338.658 261.048 338.678 260.988 338.718 260.941C338.764 260.894 338.824 260.871 338.898 260.871H343.188C343.261 260.871 343.321 260.894 343.368 260.941C343.414 260.988 343.438 261.048 343.438 261.121V261.721C343.438 261.781 343.424 261.834 343.398 261.881C343.371 261.928 343.341 261.968 343.308 262.001L341.578 263.781L341.698 263.791C342.104 263.824 342.464 263.918 342.778 264.071C343.098 264.218 343.344 264.434 343.518 264.721C343.698 265.008 343.788 265.368 343.788 265.801C343.788 266.254 343.668 266.644 343.428 266.971C343.194 267.291 342.871 267.538 342.458 267.711C342.044 267.884 341.571 267.971 341.038 267.971Z" fill="#1F1F1F"/>
</svg>
