<svg width="636" height="422" viewBox="0 0 636 422" fill="none" xmlns="http://www.w3.org/2000/svg">
<g clip-path="url(#clip0_2960_2592)">
<rect width="636" height="420" transform="translate(0 0.720703)" fill="white"/>
<g opacity="0.6">
<path d="M570.312 69.2473L594.847 69.2327L594.896 152.037L570.362 152.052L570.312 69.2473Z" fill="#D5F3D8"/>
<path d="M541.211 122.934L541.196 98.3992L624.001 98.3499L624.015 122.884L541.211 122.934Z" fill="#D5F3D8"/>
</g>
<path fill-rule="evenodd" clip-rule="evenodd" d="M273.908 203.209C273.908 196.847 273.118 196.983 266.935 196.983C261.542 196.983 260.621 196.983 260.621 203.209V241.377C260.621 247.739 261.41 247.603 267.593 247.603C272.987 247.603 273.908 247.603 273.908 241.377C273.908 239.347 273.908 206.592 273.908 203.209Z" fill="#0053CC"/>
<path fill-rule="evenodd" clip-rule="evenodd" d="M239.179 222.293C243.389 215.39 247.993 208.488 252.334 201.585C254.176 198.607 253.255 196.983 249.835 196.983C241.415 196.983 240.495 196.577 237.074 201.72C236.285 202.803 234.575 205.781 233.917 206.999L230.628 212.683L227.34 206.863C226.682 205.645 224.84 202.668 224.183 201.585C220.762 196.442 219.973 196.848 211.422 196.848C208.002 196.848 206.95 198.472 208.923 201.45C213.264 208.352 217.868 215.255 222.078 222.158C217.868 229.061 213.264 235.964 208.923 242.866C207.081 245.844 208.002 247.468 211.422 247.468C219.841 247.468 220.762 247.874 224.183 242.866C224.972 241.784 226.682 238.806 227.34 237.588C228.524 235.558 229.576 233.663 230.628 231.768L233.917 237.588C234.575 238.806 236.417 241.784 237.074 242.866C240.495 248.01 241.284 247.468 249.835 247.468C253.255 247.468 254.307 245.844 252.334 242.866C247.993 235.964 243.389 229.061 239.179 222.293Z" fill="#0053CC"/>
<path fill-rule="evenodd" clip-rule="evenodd" d="M267.331 173.297C263.122 173.432 259.833 176.951 259.965 181.282C260.096 185.613 263.517 188.997 267.726 188.862C271.804 188.726 275.093 185.343 275.093 181.147C275.093 176.951 271.804 173.432 267.726 173.432C267.463 173.297 267.463 173.297 267.331 173.297Z" fill="#0053CC"/>
<path fill-rule="evenodd" clip-rule="evenodd" d="M141.703 186.29H129.732C127.495 186.29 126.443 188.05 125.785 190.486L113.419 227.572L101.185 190.486C100.528 188.185 99.3438 186.29 97.1074 186.29H85.3996C83.1633 186.29 81.4531 188.185 81.4531 190.486V243.408C81.4531 245.709 83.1633 247.468 85.3996 247.603H90.6615C92.8979 247.603 94.608 245.709 94.608 243.408V210.653L105.395 243.408C106.316 245.979 107.237 247.603 109.341 247.603H117.629C119.865 247.603 120.786 245.979 121.707 243.408L132.494 210.653V243.408C132.494 245.709 134.336 247.603 136.572 247.603H141.834C144.07 247.603 145.912 245.709 145.912 243.408V190.486C145.781 188.185 143.939 186.29 141.703 186.29Z" fill="#0053CC"/>
<path fill-rule="evenodd" clip-rule="evenodd" d="M200.372 199.825C200.372 196.306 199.845 195.9 196.425 196.171C193.005 196.442 190.505 197.524 189.19 199.419C188.006 198.336 186.691 197.389 185.243 196.712C181.692 195.359 177.877 194.953 174.193 195.223C164.722 195.494 156.434 202.262 154.329 211.871C152.619 218.368 152.619 225.136 154.329 231.632C155.645 237.588 159.591 242.731 164.985 245.303C169.984 247.604 175.509 248.01 180.771 246.656C183.533 245.709 186.033 244.084 188.006 241.784C189.19 245.573 191.558 247.198 196.425 247.604C199.845 247.874 200.372 247.468 200.372 244.084C200.372 238.941 200.372 233.933 200.372 228.79V215.932C200.372 210.518 200.372 205.104 200.372 199.825ZM176.824 233.798C168.011 233.933 165.38 225.406 167.09 216.338C168.011 211.33 171.168 208.217 176.167 207.811C176.43 207.811 176.824 207.811 177.087 207.811C182.086 208.082 185.243 211.195 186.296 216.203C188.138 225.271 185.638 233.798 176.824 233.798Z" fill="#0053CC"/>
<path fill-rule="evenodd" clip-rule="evenodd" d="M384.673 227.842C389.145 227.707 391.25 225.677 391.513 221.616C392.171 210.653 387.83 197.795 371.781 196.171C360.468 195.088 350.865 199.69 347.313 211.736C345.603 217.827 345.339 224.188 346.523 230.279C347.97 237.994 352.18 243.543 359.678 246.115C367.177 248.686 375.201 248.686 382.568 245.979C385.725 244.761 389.277 242.19 390.198 238.535C390.592 236.776 390.724 235.016 390.592 233.256C390.461 231.903 390.198 231.362 388.487 232.038C388.224 232.174 386.383 232.986 385.462 233.392C382.305 234.745 378.884 235.557 375.464 235.828C372.702 236.234 369.939 235.963 367.308 235.016C364.414 233.933 361.652 232.174 360.731 227.842C362.835 227.978 378.753 227.978 384.673 227.842ZM375.859 210.653C374.28 208.758 372.175 207.811 369.808 207.675C369.676 207.675 368.887 207.675 368.755 207.675C366.65 207.675 364.677 208.488 363.23 209.976C363.099 210.112 362.967 210.247 362.704 210.518C361.257 212.277 360.468 214.443 360.336 216.609H378.095C377.964 214.443 377.174 212.413 375.859 210.653Z" fill="#00B500"/>
<path fill-rule="evenodd" clip-rule="evenodd" d="M440.712 203.344C440.712 200.096 440.186 199.69 436.897 199.961C433.609 200.231 431.372 201.179 430.057 203.074C429.004 202.126 427.689 201.179 426.373 200.637C423.085 199.419 419.533 199.013 415.981 199.284C411.903 199.419 407.825 200.773 404.536 203.344C400.985 206.187 398.354 210.247 397.301 214.714C395.723 220.804 395.723 227.166 397.301 233.121C398.617 238.67 402.3 243.408 407.299 245.979C411.903 248.009 417.165 248.551 422.032 247.197C424.663 246.385 427.031 244.761 428.741 242.596C429.794 246.115 432.162 247.603 436.634 248.009C439.923 248.28 440.318 247.874 440.449 244.626C440.449 239.889 440.449 235.151 440.449 230.414C440.449 226.895 440.449 227.978 440.449 223.511C440.449 220.398 440.449 220.669 440.449 218.368C440.712 213.36 440.712 208.352 440.712 203.344ZM418.612 235.151C410.324 235.287 407.957 227.301 409.535 218.774C410.061 214.308 413.613 210.924 417.954 210.788C418.217 210.788 418.612 210.788 418.744 210.788C423.479 211.059 426.373 214.037 427.294 218.639C429.268 227.166 426.9 235.151 418.612 235.151Z" fill="#00B500"/>
<path d="M288.642 184.801H302.06C303.113 184.801 303.902 185.613 303.902 186.696V207.134C303.902 208.217 304.691 209.029 305.744 209.029H321.267C322.319 209.029 323.108 208.217 323.108 207.134V186.561C323.108 185.478 323.898 184.666 324.95 184.666H338.499C339.552 184.666 340.341 185.478 340.341 186.561V245.573C340.341 246.656 339.552 247.468 338.499 247.468H324.818C323.766 247.468 322.977 246.656 322.977 245.573V223.376C322.977 222.293 322.187 221.481 321.135 221.481H305.744C304.691 221.481 303.902 222.293 303.902 223.376V245.573C303.902 246.656 303.113 247.468 302.06 247.468H288.642C287.59 247.468 286.801 246.656 286.801 245.573V186.561C286.801 185.613 287.59 184.801 288.642 184.801Z" fill="#00B500"/>
<path d="M450.842 180.605H462.681C463.733 180.605 464.523 181.418 464.523 182.5V245.573C464.523 246.656 463.733 247.468 462.681 247.468H450.842C449.789 247.468 449 246.656 449 245.573V182.5C449 181.418 449.789 180.605 450.842 180.605Z" fill="#00B500"/>
<path d="M477.417 234.475V211.33C477.417 210.789 477.022 210.382 476.496 210.382H473.471C472.418 210.382 471.629 209.57 471.629 208.488V201.179C471.629 200.096 472.418 199.284 473.471 199.284H476.496C477.022 199.284 477.417 198.878 477.417 198.336V189.809C477.417 188.727 478.206 187.915 479.259 187.915H491.098C492.151 187.915 492.94 188.727 492.94 189.809V198.336C492.94 198.878 493.334 199.284 493.861 199.284H500.57C501.622 199.284 502.411 200.096 502.411 201.179V208.488C502.411 209.57 501.622 210.382 500.57 210.382H493.861C493.334 210.382 492.94 210.789 492.94 211.33V232.038C492.94 235.422 494.255 236.369 498.07 236.369C498.991 236.369 499.912 236.37 500.701 236.234C501.754 236.099 502.543 236.911 502.674 237.858C502.674 237.994 502.674 237.994 502.674 238.129V244.896C502.674 245.709 502.148 246.385 501.49 246.656C498.596 247.603 495.439 248.145 492.414 248.01C483.074 248.145 477.417 245.032 477.417 234.475Z" fill="#00B500"/>
<path d="M512.406 180.605H524.245C525.297 180.605 526.087 181.418 526.087 182.5V202.397C526.087 202.667 526.35 202.803 526.481 202.803H526.613C528.718 201.72 535.69 198.472 540.689 198.472C549.371 198.472 554.501 202.126 554.501 211.6V245.438C554.501 246.521 553.712 247.333 552.66 247.333H540.82C539.768 247.333 538.978 246.521 538.978 245.438V215.932C538.978 212.006 537.4 210.653 533.059 210.653C531.085 210.788 529.112 211.059 527.139 211.736C526.35 212.006 525.824 212.683 525.824 213.495V245.302C525.824 246.385 525.034 247.197 523.982 247.197H512.142C511.09 247.197 510.301 246.385 510.301 245.302V182.5C510.564 181.418 511.353 180.605 512.406 180.605Z" fill="#4DAD57"/>
</g>
<defs>
<clipPath id="clip0_2960_2592">
<rect width="636" height="421" fill="white" transform="translate(0 0.720703)"/>
</clipPath>
</defs>
</svg>
