<svg width="60" height="60" viewBox="0 0 60 60" fill="none" xmlns="http://www.w3.org/2000/svg">
<path d="M25.3222 1.24905C28.2184 -0.416348 31.7816 -0.416349 34.6778 1.24904L38.1389 3.23926C39.0783 3.77945 40.1042 4.15285 41.1711 4.34288L45.1017 5.04303C48.3908 5.6289 51.1204 7.9193 52.2685 11.0567L53.6406 14.806C54.013 15.8237 54.5588 16.7692 55.254 17.6005L57.8149 20.6634C59.958 23.2264 60.5767 26.7355 59.4395 29.8769L58.0806 33.631C57.7117 34.6499 57.5221 35.7251 57.5202 36.8087L57.5133 40.8012C57.5074 44.1421 55.7258 47.2279 52.8355 48.9034L49.3813 50.9057C48.4438 51.4492 47.6075 52.1509 46.9095 52.9798L44.3378 56.0338C42.1859 58.5893 38.8376 59.808 35.5464 59.2336L31.6134 58.5472C30.5459 58.3609 29.4541 58.3609 28.3866 58.5472L24.4536 59.2336C21.1624 59.808 17.8141 58.5893 15.6622 56.0338L13.0905 52.9798C12.3925 52.1509 11.5562 51.4492 10.6186 50.9057L7.16454 48.9034C4.27417 47.2279 2.49255 44.1421 2.48673 40.8012L2.47977 36.8087C2.47788 35.7251 2.2883 34.6499 1.91944 33.631L0.560472 29.8769C-0.5767 26.7355 0.0420466 23.2264 2.18506 20.6634L4.74604 17.6005C5.44116 16.7692 5.98703 15.8237 6.35944 14.806L7.73149 11.0567C8.87961 7.9193 11.6092 5.6289 14.8983 5.04303L18.8289 4.34289C19.8958 4.15285 20.9217 3.77945 21.8611 3.23926L25.3222 1.24905Z" fill="#D1D1D1"/>
</svg>
