<svg width="35" height="39" viewBox="0 0 35 39" fill="none" xmlns="http://www.w3.org/2000/svg">
<path d="M0.872927 -5.80705e-05C0.872928 4.49698 2.65937 8.80984 5.83926 11.9897C9.01915 15.1696 13.332 16.9561 17.829 16.9561C22.3261 16.9561 26.6389 15.1696 29.8188 11.9897C32.9987 8.80984 34.7852 4.49698 34.7852 -5.91278e-05L0.872927 -5.80705e-05Z" fill="#E6E6E6"/>
<path d="M34.7872 39.0001C34.7872 34.503 33.0008 30.1902 29.8209 27.0103C26.641 23.8304 22.3282 22.0439 17.8311 22.0439C13.3341 22.0439 9.02122 23.8304 5.84133 27.0103C2.66144 30.1902 0.874999 34.503 0.874997 39.0001L34.7872 39.0001Z" fill="#35A3BB"/>
</svg>
