<svg width="79" height="79" viewBox="0 0 79 79" fill="none" xmlns="http://www.w3.org/2000/svg">
<path d="M36.4766 4.02637H42.9766V7.27637H46.2266V10.5264H49.4766V13.7764H52.7266V17.0264H55.9766V20.2764H59.2266V23.5264H62.4766V26.7764H65.7266V30.0264H68.9766V33.2764H72.2266V36.5264H75.4766V39.7764H72.2266V43.0264H68.9766V46.2764H65.7266V43.0264H62.4766V39.7764H59.2266V36.5264H55.9766V33.2764H52.7266V30.0264H49.4766V26.7764H46.2266V75.5264H33.2266V26.7764H29.9766V30.0264H26.7266V33.2764H23.4766V36.5264H20.2266V39.7764H16.9766V43.0264H13.7266V46.2764H10.4766V43.0264H7.22656V39.7764H3.97656V36.5264H7.22656V33.2764H10.4766V30.0264H13.7266V26.7764H16.9766V23.5264H20.2266V20.2764H23.4766V17.0264H26.7266V13.7764H29.9766V10.5264H33.2266V7.27637H36.4766V4.02637Z" fill="white"/>
</svg>
