<svg width="60" height="60" viewBox="0 0 60 60" fill="none" xmlns="http://www.w3.org/2000/svg">
<path d="M25.3222 1.35354C28.2184 -0.311856 31.7816 -0.311856 34.6778 1.35354L38.1389 3.34375C39.0783 3.88395 40.1042 4.25734 41.1711 4.44738L45.1017 5.14752C48.3908 5.73339 51.1204 8.02379 52.2685 11.1612L53.6406 14.9105C54.013 15.9282 54.5588 16.8737 55.254 17.705L57.8149 20.7679C59.958 23.3309 60.5767 26.84 59.4395 29.9814L58.0806 33.7355C57.7117 34.7544 57.5221 35.8296 57.5202 36.9132L57.5133 40.9057C57.5074 44.2466 55.7258 47.3324 52.8355 49.0079L49.3813 51.0102C48.4438 51.5537 47.6075 52.2554 46.9095 53.0843L44.3378 56.1383C42.1859 58.6938 38.8376 59.9125 35.5464 59.3381L31.6134 58.6517C30.5459 58.4653 29.4541 58.4653 28.3866 58.6517L24.4536 59.3381C21.1624 59.9125 17.8141 58.6938 15.6622 56.1383L13.0905 53.0843C12.3925 52.2554 11.5562 51.5537 10.6186 51.0102L7.16454 49.0079C4.27417 47.3324 2.49255 44.2466 2.48673 40.9057L2.47977 36.9132C2.47788 35.8296 2.2883 34.7544 1.91944 33.7355L0.560472 29.9814C-0.5767 26.84 0.0420466 23.3309 2.18506 20.7679L4.74604 17.705C5.44116 16.8737 5.98703 15.9282 6.35944 14.9105L7.73149 11.1612C8.87961 8.02379 11.6092 5.73339 14.8983 5.14752L18.8289 4.44738C19.8958 4.25734 20.9217 3.88395 21.8611 3.34375L25.3222 1.35354Z" fill="#D1D1D1"/>
<path fill-rule="evenodd" clip-rule="evenodd" d="M43.8135 20.2117L41.2688 17.667L29.9966 28.9571L18.7244 17.667L16.1797 20.2117L27.4698 31.4839L16.1797 42.7561L18.7244 45.3008L29.9966 34.0107L41.2688 45.3008L43.8135 42.7561L32.5234 31.4839L43.8135 20.2117Z" fill="#3A3A3A"/>
</svg>
