<svg width="1361" height="257" viewBox="0 0 1361 257" fill="none" xmlns="http://www.w3.org/2000/svg">
<path d="M129.39 110.517C181.226 124.724 234.597 141.619 234.597 200.366C234.597 252.97 194.665 287.144 125.934 287.144C54.5154 287.144 0.759555 251.818 0.759555 190.767H69.8742C69.8742 219.949 95.2163 230.7 125.934 230.7C151.66 230.7 165.483 220.717 165.483 206.894C165.483 185.007 135.917 180.016 97.1361 168.497C49.9078 154.674 8.43896 134.323 8.43896 83.6392C8.43896 23.7399 55.2833 0.317681 114.415 0.317681C178.538 0.317681 228.838 34.1071 230.758 89.7828H161.643C158.571 69.0484 140.909 56.7613 114.415 56.7613C93.6804 56.7613 77.5536 63.2888 77.5536 78.6476C77.5536 95.5423 94.8323 100.918 129.39 110.517ZM374.54 84.4072H435.975V281H374.54V252.586H373.772C363.405 270.633 344.206 287.144 309.265 287.144C271.252 287.144 245.526 262.185 245.526 217.261V84.4072H306.961V197.678C306.961 227.244 317.328 237.227 337.679 237.227C361.101 237.227 374.54 225.324 374.54 198.062V84.4072ZM550.518 156.978C589.299 165.425 627.696 178.48 627.696 223.02C627.696 264.489 596.211 287.144 541.687 287.144C471.42 287.144 444.542 255.658 442.622 215.725H500.218C502.138 235.308 515.193 244.907 539.383 244.907C556.662 244.907 566.261 239.147 566.261 228.012C566.261 211.117 547.83 208.814 516.729 201.902C483.323 194.607 446.462 182.32 446.462 141.235C446.462 105.526 477.18 78.2637 532.471 78.2637C595.443 78.2637 620.017 110.133 621.937 144.691H564.341C562.421 128.948 553.974 120.5 534.007 120.5C516.729 120.5 507.897 126.644 507.897 136.243C507.897 150.066 520.184 150.45 550.518 156.978ZM759.746 78.2637C801.215 78.2637 826.941 103.222 826.941 148.146V281H765.505V167.729C765.505 138.163 755.906 128.18 733.636 128.18C714.053 128.18 697.927 140.083 697.927 167.345V281H636.491V6.4612H697.927V112.821H698.695C709.062 94.7744 728.26 78.2637 759.746 78.2637ZM959.914 138.931C959.914 127.412 951.851 120.5 934.956 120.5C912.686 120.5 901.935 128.948 900.015 147.762H842.419C844.339 110.133 871.217 78.2637 935.34 78.2637C990.632 78.2637 1021.35 99.766 1021.35 161.585V251.818C1021.35 262.185 1025.19 266.409 1032.87 266.409V281C1020.58 285.608 1009.45 287.144 997.16 287.144C969.514 287.144 961.834 274.089 961.834 260.266H961.066C948.395 274.856 925.357 287.144 899.247 287.144C857.778 287.144 834.74 263.721 834.74 230.7C834.74 191.535 863.538 173.488 909.614 164.273C934.956 159.281 959.914 155.442 959.914 138.931ZM920.749 244.907C947.243 244.907 959.914 228.012 959.914 209.198V185.391C952.235 188.463 942.636 191.151 928.429 194.223C904.239 199.598 896.175 209.582 896.175 221.869C896.175 237.995 905.775 244.907 920.749 244.907ZM1171.38 78.2637C1209.39 78.2637 1235.12 103.222 1235.12 148.146V281H1173.68V167.729C1173.68 138.163 1163.32 128.18 1142.97 128.18C1119.54 128.18 1106.11 140.083 1106.11 167.345V281H1044.67V84.4072H1106.11V112.821H1106.87C1117.24 94.7744 1136.44 78.2637 1171.38 78.2637ZM1360.5 130.484H1326.33V211.885C1326.33 234.156 1334.39 234.156 1360.5 234.156V280.232C1349.37 282.536 1339.77 284.456 1322.49 284.456C1277.57 284.456 1264.89 260.65 1264.89 216.493V130.484H1237.63V84.4072H1264.89V29.4994H1326.33V84.4072H1360.5V130.484Z" fill="#272727"/>
</svg>
