<svg width="389" height="324" viewBox="0 0 389 324" fill="none" xmlns="http://www.w3.org/2000/svg">
<rect y="0.871094" width="389" height="323" rx="32" fill="white"/>
<path d="M186.629 262.47C193.303 262.47 200.574 261.781 208.204 259.91C248.173 250.235 270.466 215.867 277.689 203.41L186.605 262.47H186.629Z" fill="#00A152"/>
<path d="M102.039 140.804C102.039 140.804 113.305 103.458 151.025 79.0117L102.039 140.804Z" fill="#00A152"/>
<path d="M275.966 170.469C275.966 195.875 265.944 218.869 249.798 235.511C233.629 252.154 211.289 262.444 186.604 262.444H119.583C107.264 262.444 97.2422 252.129 97.2422 239.45V170.469C97.2422 145.063 107.264 122.094 123.41 105.451C139.579 88.8093 161.919 78.4941 186.604 78.4941C235.973 78.4941 275.966 119.681 275.966 170.494H275.99L275.966 170.469Z" fill="#00A152"/>
<path d="M291.755 154.271C291.755 179.677 281.733 202.671 265.588 219.313C249.419 235.955 227.078 246.246 202.394 246.246H135.348C123.03 246.246 113.008 235.931 113.008 223.252V154.271C113.008 128.865 123.03 105.871 139.175 89.2288C155.345 72.5867 177.685 62.2715 202.37 62.2715C251.739 62.2715 291.731 103.458 291.731 154.271H291.755Z" fill="#08C06A"/>
<path d="M218.956 173.055C220.631 175.123 221.372 178.004 220.846 181.179C220.32 184.331 218.55 187.236 216.182 189.328C213.814 191.396 210.8 192.701 207.714 192.701H166.478V192.627C166.023 192.676 165.569 192.701 165.114 192.701C158.943 192.701 154.829 187.556 155.905 181.204C156.336 178.619 157.58 176.256 159.302 174.336L192.334 138.86H175.495C169.324 138.86 165.21 133.715 166.286 127.363C166.813 124.187 168.583 121.307 170.951 119.215C173.319 117.147 176.332 115.842 179.418 115.842H221.3C224.386 115.842 226.945 117.122 228.62 119.215C230.294 121.282 231.035 124.163 230.509 127.363C230.079 129.948 228.835 132.312 227.113 134.232L194.08 169.707H211.661C214.746 169.707 217.306 170.987 218.98 173.08L218.956 173.055Z" fill="white"/>
<path d="M235.685 192.675C229.513 192.675 225.399 187.53 226.476 181.178C227.552 174.827 233.436 169.682 239.607 169.682C245.778 169.682 249.893 174.827 248.816 181.178C247.74 187.53 241.856 192.675 235.685 192.675Z" fill="white"/>
</svg>
