<svg width="389" height="154" viewBox="0 0 389 154" fill="none" xmlns="http://www.w3.org/2000/svg">
<rect y="0.871094" width="389" height="153" rx="32" fill="white"/>
<path d="M224.213 93.5256C236.394 93.5256 248.359 83.6602 250.951 71.4796C253.543 59.299 245.767 49.4336 233.597 49.4336H224.776C212.596 49.4336 200.63 59.299 198.038 71.4796C198.018 71.5923 197.987 71.7152 197.967 71.8279C197.967 71.8484 197.967 71.8791 197.957 71.8996L192.353 98.699C191.574 102.356 193.91 105.317 197.557 105.317C201.214 105.317 204.8 102.356 205.578 98.699L206.705 93.5768C206.705 93.5768 212.309 93.5256 215.403 93.5256H224.223H224.213ZM237.377 71.4796C236.312 76.4891 231.394 80.5459 226.375 80.5459H209.215C209.215 80.5459 210.117 76.5301 211.131 71.5615L211.151 71.4796C212.217 66.4701 217.144 62.4133 222.154 62.4133H230.237C235.246 62.4133 238.442 66.4701 237.377 71.4796Z" fill="#06B764"/>
<path d="M283.541 93.5256C295.722 93.5256 307.687 83.6602 310.279 71.4796C312.871 59.299 305.095 49.4336 292.925 49.4336H284.105C271.924 49.4336 259.958 59.299 257.367 71.4796C257.346 71.5923 257.315 71.7152 257.295 71.8279C257.295 71.8484 257.295 71.8791 257.285 71.8996L251.681 98.699C250.902 102.356 253.238 105.317 256.885 105.317C260.542 105.317 264.128 102.356 264.906 98.699L266.033 93.5768C266.033 93.5768 271.637 93.5256 274.731 93.5256H283.551H283.541ZM296.705 71.4796C295.64 76.4891 290.722 80.5459 285.703 80.5459H268.543C268.543 80.5459 269.445 76.5301 270.459 71.5615L270.479 71.4796C271.545 66.4701 276.472 62.4133 281.482 62.4133H289.565C294.574 62.4133 297.771 66.4701 296.705 71.4796Z" fill="#06B764"/>
<path d="M102.869 62.6596L102.9 62.6289L100.114 62.6596L98.0237 62.6801H96.5485L91.0575 62.7416L89.0393 62.7621C88.3222 62.7621 87.6563 62.6494 87.0519 62.4342C84.5932 61.5737 83.2103 59.0843 83.8352 56.1544C84.6137 52.4972 88.1993 49.5365 91.8565 49.5365H94.1308L117.478 49.5058H121.002C121.903 49.5058 122.682 49.4238 123.45 49.4238H123.829C127.128 49.4238 129.351 51.8313 129.177 54.9968C129.156 55.3349 129.115 55.6832 129.034 56.0417C128.644 57.8652 127.558 59.5146 126.104 60.7132L104.529 80.362H101.005H104.252H104.519L106.229 80.3415L123.502 80.28L125.499 80.2595C126.216 80.2595 126.882 80.3722 127.487 80.5873C129.945 81.4479 131.328 83.9373 130.703 86.8672C129.925 90.5244 126.339 93.4851 122.682 93.4851H109.385L86.386 93.5158H84.6342H83.241C83.0771 93.5158 82.9029 93.5158 82.739 93.526C80.6799 93.2494 79.1535 91.9996 78.5286 90.2171C78.2929 89.541 78.1905 88.8034 78.2315 88.0145C78.252 87.6765 78.2929 87.3282 78.3749 86.9696C78.7642 85.1461 79.8603 83.4865 81.3048 82.2982L84.04 79.8088L102.859 62.6596H102.869Z" fill="#06B764"/>
<path d="M172.082 49.4541L171.047 49.4336H162.247C150.098 49.4336 137.917 59.2785 135.059 71.4386C132.19 83.5885 139.72 93.4436 151.87 93.4436H160.67C163.743 93.4436 169.326 93.4436 169.521 93.4436C169.142 96.7116 171.324 99.2419 174.694 99.2419C178.321 99.2419 181.947 96.3223 182.839 92.6958V92.6343H182.849L187.613 72.3504C187.695 72.043 187.777 71.7357 187.848 71.4284L188.053 70.5268C190.645 59.3195 183.3 49.618 172.072 49.4438L172.082 49.4541ZM172.062 80.4947H155.056C150.057 80.4947 146.953 76.4481 148.131 71.4488C149.309 66.4496 154.329 62.3928 159.328 62.3928H167.4C172.4 62.3928 175.493 66.4496 174.315 71.4488C173.137 76.4481 172.072 80.4947 172.072 80.4947H172.062Z" fill="#06B764"/>
</svg>
